<svg
    xmlns="http://www.w3.org/2000/svg"
    viewBox="0 0 300 200"
    id="vector">
    <path
        id="path"
        d="M 219.2 125.4 C 226.1 125.4 231.7 119.9 231.7 113.1 C 231.7 106.3 226.1 100.8 219.2 100.8 C 212.3 100.8 206.7 106.3 206.7 113.1 C 206.8 119.9 212.3 125.4 219.2 125.4 Z"
        fill="#525760"/>
    <path
        id="path_1"
        d="M 239.3 105.3 L 237.2 103.2 C 233.7 99.8 229.4 97.1 224.8 95.5 L 203.6 88.4 L 183 80.3 C 172.7 76.3 161.6 74.2 150.5 74.2 L 141.6 74.2 C 138.5 74.2 136.8 74.4 135.7 74.7 C 139.5 75.5 139.6 77.4 147.1 80.3 L 167.7 88.4 L 188.9 95.5 C 193.5 97.1 197.8 99.8 201.3 103.2 L 203.4 105.3 C 205.1 106.9 206 109.1 206 111.4 L 206 114.2 C 206 115.3 205.5 116.3 204.8 117 C 202.2 119.6 198.6 121.1 195 121 L 230.9 121 C 234.5 121.1 238 119.6 240.7 117 C 241.4 116.3 241.9 115.3 241.9 114.2 L 241.9 111.4 C 241.9 109.1 241 106.9 239.3 105.3 Z"
        fill="#f9f9f9"/>
    <path
        id="path_2"
        d="M 205.6 116.8 C 206.3 116.1 206.8 115.1 206.8 114 L 206.8 111.2 C 206.8 108.9 205.9 106.7 204.2 105.1 L 202.1 103 C 198.6 99.6 194.3 96.9 189.7 95.3 L 168.5 88.2 L 147.9 80.1 C 137.6 76.1 141.2 74 130.1 74 L 121.2 74 C 111.1 74 101.1 75.7 91.6 79 L 81 82.8 C 77.6 84 73.9 84.7 70.2 84.7 L 62.3 84.7 C 61.8 84.7 61.5 85.3 61.9 85.7 L 62.3 86.1 C 63 86.8 63.4 87.8 63.4 88.8 L 63.4 94 C 63.4 96.4 62.4 98.8 60.7 100.5 C 59.6 101.6 59 103.1 59 104.6 L 59 110.8 C 59 116.3 63.5 120.8 69.1 120.8 L 195.8 120.8 C 199.4 120.9 203 119.4 205.6 116.8 Z"
        fill="#f9f9f9"/>
    <path
        id="path_3"
        d="M 197.4 88 C 191.7 85.8 183.7 82.7 183.7 82.7 C 173.6 78.8 163 76.8 152.2 76.8 L 143.3 76.8 C 142.5 76.8 141.8 76.8 141.2 76.8 C 142.6 77.7 144.5 78.9 148 80.2 L 168.6 88.3 L 173.9 90.1 L 196.9 90.1 C 198.2 90.1 198.6 88.4 197.4 88 Z"
        fill="#ffffff"/>
    <path
        id="path_4"
        d="M 197.6 88.1 C 191.9 85.9 183.9 82.8 183.9 82.8 C 177.6 80.4 171.2 78.7 164.6 77.8 L 177.2 90.3 L 197.2 90.3 C 198.4 90.2 198.8 88.5 197.6 88.1 Z"
        fill="#a4a4ac"/>
    <path
        id="path_5"
        d="M 63.4 119.1 C 65 120.2 66.9 120.8 69 120.8 L 195.7 120.8 C 198 120.9 200.4 120.2 202.4 119.1 L 63.4 119.1 Z"
        fill="#a4a4ac"/>
    <path
        id="path_6"
        d="M 63.1 96.7 L 64.2 96.7 C 66.5 96.7 68.6 95.8 70.2 94.2 L 73.7 90.7 C 74.3 90.1 73.9 89.1 73 89.1 L 63.4 89.1 C 63.4 89.1 63.4 89.2 63.4 89.2 L 63.4 94.4 C 63.4 95.2 63.3 95.9 63.1 96.7 Z"
        fill="#f9f9f9"/>
    <path
        id="path_7"
        d="M 104.5 120.9 L 104.5 113.1 C 104.5 105.3 98.1 98.9 90.1 98.9 C 82.2 98.9 75.7 105.3 75.7 113.1 L 75.7 120.9"
        fill="#a4a4ac"/>
    <path
        id="path_8"
        d="M 90.2 125.4 C 97.1 125.4 102.7 119.9 102.7 113.1 C 102.7 106.3 97.1 100.8 90.2 100.8 C 83.3 100.8 77.7 106.3 77.7 113.1 C 77.7 119.9 83.3 125.4 90.2 125.4 Z"
        fill="#525760"/>
    <path
        id="path_9"
        d="M 90.2 121.4 C 94.9 121.4 98.6 117.7 98.6 113.1 C 98.6 108.5 94.8 104.8 90.2 104.8 C 85.5 104.8 81.8 108.5 81.8 113.1 C 81.7 117.7 85.5 121.4 90.2 121.4 Z"
        fill="#ffffff"/>
    <path
        id="path_10"
        d="M 90.2 107.4 L 90.2 111.6 C 91 111.6 91.7 112.3 91.7 113.1 L 96 113.1 C 96 109.9 93.4 107.4 90.2 107.4 Z"
        fill="#a4a4ac"/>
    <path
        id="path_11"
        d="M 84.4 112.6 L 88.6 113 C 88.5 113.8 89.1 114.6 89.9 114.6 L 89.5 118.9 C 86.3 118.6 84.1 115.8 84.4 112.6 Z"
        fill="#a4a4ac"/>
    <path
        id="path_12"
        d="M 193 104.9 L 193.3 105.2 C 195.6 107.5 198.8 108.8 202.1 108.8 L 211.9 108.8 C 212.4 108.8 212.7 108.2 212.3 107.8 L 209.8 105.4 C 208.9 104.5 207.6 104 206.3 104 L 193.4 104 C 192.9 103.9 192.6 104.5 193 104.9 Z"
        fill="#ffffff"/>
    <path
        id="path_13"
        d="M 160.2 90.1 C 161.4 90.1 161.8 88.4 160.6 88 C 154.9 85.8 146.9 82.7 146.9 82.7 C 136.8 78.8 140.9 76.8 130.1 76.8 L 121.2 76.8 C 111.4 76.8 101.8 78.4 92.6 81.7 L 86 83.9 C 84.1 84.6 83.6 86.9 85 88.3 C 86.2 89.5 87.8 90.1 89.4 90.1 C 89.4 90.1 160.2 90.1 160.2 90.1 Z"
        fill="#525760"/>
    <path
        id="path_14"
        d="M 212.1 105 L 215.2 108.1 C 216.2 109.1 217.6 109.7 219 109.7 L 230.2 109.7 C 231.6 109.7 233 109.2 234 108.1 L 237.1 105 C 237.5 104.6 237.2 103.8 236.6 103.8 L 212.4 103.8 C 212 103.9 211.7 104.6 212.1 105 Z"
        fill="#a4a4ac"/>
    <path
        id="path_15"
        d="M 241.9 114 L 241.9 112.9 L 237.3 112.9 C 236.5 112.9 235.7 113.2 235 113.8 C 234.4 114.4 233.6 114.7 232.7 114.7 L 216.7 114.7 C 215.9 114.7 215.1 114.4 214.4 113.8 C 213.8 113.2 213 112.9 212.1 112.9 L 202 112.9 C 201.2 112.9 200.4 113.2 199.7 113.8 L 198.8 114.7 C 198.1 115.4 198.6 116.6 199.6 116.6 L 240.9 116.6 C 241.5 116 241.9 115 241.9 114 Z"
        fill="#525760"/>
    <path
        id="path_16"
        d="M 238 119.1 L 192.3 119.1 L 192.3 120.9 L 232.5 120.9 C 234.4 120.7 236.3 120.1 238 119.1 Z"
        fill="#ededed"/>
    <path
        id="path_17"
        d="M 239.9 105.5 L 237.5 107.8 C 237.1 108.2 237.4 108.8 237.9 108.8 L 241.9 108.8 C 241.4 107.6 240.8 106.5 239.9 105.5 Z"
        fill="#ffffff"/>
    <path
        id="path_18"
        d="M 229.6 116.9 L 219.8 116.9 C 219.5 116.9 219.2 116.6 219.2 116.3 L 219.2 113.6 C 219.2 113.3 219.5 113 219.8 113 L 229.6 113 C 229.9 113 230.2 113.3 230.2 113.6 L 230.2 116.3 C 230.2 116.6 229.9 116.9 229.6 116.9 Z"
        fill="#ffffff"/>
    <path
        id="path_19"
        d="M 157.9 92.8 C 159.1 92.8 159.5 91.1 158.3 90.7 C 154.2 89.1 149 87.1 146.3 86 C 145.5 85.7 144.6 86.3 144.6 87.2 L 144.6 92.9 L 157.9 92.8 L 157.9 92.8 Z"
        fill="#f9f9f9"/>
    <path
        id="path_20"
        d="M 187.3 120.9 L 187.3 113.1 C 187.3 105.3 180.9 98.9 172.9 98.9 C 165 98.9 158.5 105.3 158.5 113.1 L 158.5 120.9"
        fill="#a4a4ac"/>
    <path
        id="path_21"
        d="M 173 125.4 C 179.9 125.4 185.5 119.9 185.5 113.1 C 185.5 106.3 179.9 100.8 173 100.8 C 166.1 100.8 160.5 106.3 160.5 113.1 C 160.5 119.9 166.1 125.4 173 125.4 Z"
        fill="#525760"/>
    <path
        id="path_22"
        d="M 173 121.4 C 177.7 121.4 181.4 117.7 181.4 113.1 C 181.4 108.5 177.6 104.8 173 104.8 C 168.3 104.8 164.6 108.5 164.6 113.1 C 164.5 117.7 168.3 121.4 173 121.4 Z"
        fill="#ffffff"/>
    <path
        id="path_23"
        d="M 173 107.4 L 173 111.6 C 173.8 111.6 174.5 112.3 174.5 113.1 L 178.8 113.1 C 178.8 109.9 176.2 107.4 173 107.4 Z"
        fill="#a4a4ac"/>
    <path
        id="path_24"
        d="M 167.3 112.6 L 171.5 113 C 171.4 113.8 172 114.6 172.8 114.6 L 172.4 118.9 C 169.1 118.6 166.9 115.8 167.3 112.6 Z"
        fill="#a4a4ac"/>
</svg>
