<svg
    xmlns="http://www.w3.org/2000/svg"
    viewBox="0 0 350 350"
    id="vector">
    <defs>
        <clipPath id="clip_path_85">
            <path d="M 175 23.52 C 104.92 23.52 43.28 50.39 43.28 50.39 L 43.28 207.14 C 43.28 270.89 116.65 301.32 175 326.48 C 232.96 301.58 306.72 271.16 306.72 207.14 L 306.72 50.39 C 306.72 50.39 247.45 23.52 175 23.52 Z"/>
        </clipPath>
        <clipPath id="clip_path_86">
            <path d="M 175 23.52 C 104.92 23.52 43.28 50.39 43.28 50.39 L 43.28 207.14 C 43.28 270.89 116.65 301.32 175 326.48 C 232.96 301.58 306.72 271.16 306.72 207.14 L 306.72 50.39 C 306.72 50.39 247.45 23.52 175 23.52 Z"/>
        </clipPath>
        <clipPath id="clip_group_28">
            <path d="M 175 23.52 C 104.92 23.52 43.28 50.39 43.28 50.39 L 43.28 207.14 C 43.28 270.89 116.65 301.32 175 326.48 C 232.96 301.58 306.72 271.16 306.72 207.14 L 306.72 50.39 C 306.72 50.39 247.45 23.52 175 23.52 Z"/>
        </clipPath>
        <clipPath id="clip_group_29">
            <path d="M 175 23.52 C 104.92 23.52 43.28 50.39 43.28 50.39 L 43.28 207.14 C 43.28 270.89 116.65 301.32 175 326.48 C 232.96 301.58 306.72 271.16 306.72 207.14 L 306.72 50.39 C 306.72 50.39 247.45 23.52 175 23.52 Z"/>
        </clipPath>
        <clipPath id="clip_group_30">
            <path d="M 175 23.52 C 104.92 23.52 43.28 50.39 43.28 50.39 L 43.28 207.14 C 43.28 270.89 116.65 301.32 175 326.48 C 232.96 301.58 306.72 271.16 306.72 207.14 L 306.72 50.39 C 306.72 50.39 247.45 23.52 175 23.52 Z"/>
        </clipPath>
        <clipPath id="clip_group_31">
            <path d="M 175 23.52 C 104.92 23.52 43.28 50.39 43.28 50.39 L 43.28 207.14 C 43.28 270.89 116.65 301.32 175 326.48 C 232.96 301.58 306.72 271.16 306.72 207.14 L 306.72 50.39 C 306.72 50.39 247.45 23.52 175 23.52 Z"/>
        </clipPath>
        <clipPath id="clip_path_91">
            <path d="M 175 23.52 C 104.92 23.52 43.28 50.39 43.28 50.39 L 43.28 207.14 C 43.28 270.89 116.65 301.32 175 326.48 C 232.96 301.58 306.72 271.16 306.72 207.14 L 306.72 50.39 C 306.72 50.39 247.45 23.52 175 23.52 Z"/>
        </clipPath>
        <clipPath id="clip_path_92">
            <path d="M 175 23.52 C 104.92 23.52 43.28 50.39 43.28 50.39 L 43.28 207.14 C 43.28 270.89 116.65 301.32 175 326.48 C 232.96 301.58 306.72 271.16 306.72 207.14 L 306.72 50.39 C 306.72 50.39 247.45 23.52 175 23.52 Z"/>
        </clipPath>
        <clipPath id="clip_path_93">
            <path d="M 175 23.52 C 104.92 23.52 43.28 50.39 43.28 50.39 L 43.28 207.14 C 43.28 270.89 116.65 301.32 175 326.48 C 232.96 301.58 306.72 271.16 306.72 207.14 L 306.72 50.39 C 306.72 50.39 247.45 23.52 175 23.52 Z"/>
        </clipPath>
        <clipPath id="clip_path_94">
            <path d="M 175 23.52 C 104.92 23.52 43.28 50.39 43.28 50.39 L 43.28 207.14 C 43.28 270.89 116.65 301.32 175 326.48 C 232.96 301.58 306.72 271.16 306.72 207.14 L 306.72 50.39 C 306.72 50.39 247.45 23.52 175 23.52 Z"/>
        </clipPath>
        <clipPath id="clip_path_95">
            <path d="M 175 23.52 C 104.92 23.52 43.28 50.39 43.28 50.39 L 43.28 207.14 C 43.28 270.89 116.65 301.32 175 326.48 C 232.96 301.58 306.72 271.16 306.72 207.14 L 306.72 50.39 C 306.72 50.39 247.45 23.52 175 23.52 Z"/>
        </clipPath>
        <clipPath id="clip_path_96">
            <path d="M 175 23.52 C 104.92 23.52 43.28 50.39 43.28 50.39 L 43.28 207.14 C 43.28 270.89 116.65 301.32 175 326.48 C 232.96 301.58 306.72 271.16 306.72 207.14 L 306.72 50.39 C 306.72 50.39 247.45 23.52 175 23.52 Z"/>
        </clipPath>
        <clipPath id="clip_path_97">
            <path d="M 175 23.52 C 104.92 23.52 43.28 50.39 43.28 50.39 L 43.28 207.14 C 43.28 270.89 116.65 301.32 175 326.48 C 232.96 301.58 306.72 271.16 306.72 207.14 L 306.72 50.39 C 306.72 50.39 247.45 23.52 175 23.52 Z"/>
        </clipPath>
        <clipPath id="clip_path_98">
            <path d="M 175 23.52 C 104.92 23.52 43.28 50.39 43.28 50.39 L 43.28 207.14 C 43.28 270.89 116.65 301.32 175 326.48 C 232.96 301.58 306.72 271.16 306.72 207.14 L 306.72 50.39 C 306.72 50.39 247.45 23.52 175 23.52 Z"/>
        </clipPath>
        <clipPath id="clip_path_99">
            <path d="M 175 23.52 C 104.92 23.52 43.28 50.39 43.28 50.39 L 43.28 207.14 C 43.28 270.89 116.65 301.32 175 326.48 C 232.96 301.58 306.72 271.16 306.72 207.14 L 306.72 50.39 C 306.72 50.39 247.45 23.52 175 23.52 Z"/>
        </clipPath>
        <clipPath id="clip_path_100">
            <path d="M 175 23.52 C 104.92 23.52 43.28 50.39 43.28 50.39 L 43.28 207.14 C 43.28 270.89 116.65 301.32 175 326.48 C 232.96 301.58 306.72 271.16 306.72 207.14 L 306.72 50.39 C 306.72 50.39 247.45 23.52 175 23.52 Z"/>
        </clipPath>
        <clipPath id="clip_path_101">
            <path d="M 175 23.52 C 104.92 23.52 43.28 50.39 43.28 50.39 L 43.28 207.14 C 43.28 270.89 116.65 301.32 175 326.48 C 232.96 301.58 306.72 271.16 306.72 207.14 L 306.72 50.39 C 306.72 50.39 247.45 23.52 175 23.52 Z"/>
        </clipPath>
        <clipPath id="clip_group_32">
            <path d="M 175 23.52 C 104.92 23.52 43.28 50.39 43.28 50.39 L 43.28 207.14 C 43.28 270.89 116.65 301.32 175 326.48 C 232.96 301.58 306.72 271.16 306.72 207.14 L 306.72 50.39 C 306.72 50.39 247.45 23.52 175 23.52 Z"/>
        </clipPath>
        <clipPath id="clip_group_33">
            <path d="M 175 23.52 C 104.92 23.52 43.28 50.39 43.28 50.39 L 43.28 207.14 C 43.28 270.89 116.65 301.32 175 326.48 C 232.96 301.58 306.72 271.16 306.72 207.14 L 306.72 50.39 C 306.72 50.39 247.45 23.52 175 23.52 Z"/>
        </clipPath>
        <clipPath id="clip_group_34">
            <path d="M 175 23.52 C 104.92 23.52 43.28 50.39 43.28 50.39 L 43.28 207.14 C 43.28 270.89 116.65 301.32 175 326.48 C 232.96 301.58 306.72 271.16 306.72 207.14 L 306.72 50.39 C 306.72 50.39 247.45 23.52 175 23.52 Z"/>
        </clipPath>
        <clipPath id="clip_group_35">
            <path d="M 175 23.52 C 104.92 23.52 43.28 50.39 43.28 50.39 L 43.28 207.14 C 43.28 270.89 116.65 301.32 175 326.48 C 232.96 301.58 306.72 271.16 306.72 207.14 L 306.72 50.39 C 306.72 50.39 247.45 23.52 175 23.52 Z"/>
        </clipPath>
        <clipPath id="clip_group_36">
            <path d="M 175 23.52 C 104.92 23.52 43.28 50.39 43.28 50.39 L 43.28 207.14 C 43.28 270.89 116.65 301.32 175 326.48 C 232.96 301.58 306.72 271.16 306.72 207.14 L 306.72 50.39 C 306.72 50.39 247.45 23.52 175 23.52 Z"/>
        </clipPath>
        <clipPath id="clip_path_107">
            <path d="M 175 23.52 C 104.92 23.52 43.28 50.39 43.28 50.39 L 43.28 207.14 C 43.28 270.89 116.65 301.32 175 326.48 C 232.96 301.58 306.72 271.16 306.72 207.14 L 306.72 50.39 C 306.72 50.39 247.45 23.52 175 23.52 Z"/>
        </clipPath>
        <clipPath id="clip_path_108">
            <path d="M 175 23.52 C 104.92 23.52 43.28 50.39 43.28 50.39 L 43.28 207.14 C 43.28 270.89 116.65 301.32 175 326.48 C 232.96 301.58 306.72 271.16 306.72 207.14 L 306.72 50.39 C 306.72 50.39 247.45 23.52 175 23.52 Z"/>
        </clipPath>
        <clipPath id="clip_path_87">
            <path d="M 70.16 168.16 L 110.92 168.16 L 110.92 212.45 L 70.16 212.45 Z"/>
        </clipPath>
        <clipPath id="clip_path_88">
            <path d="M 70.16 168.16 L 110.92 168.16 L 110.92 212.45 L 70.16 212.45 Z"/>
        </clipPath>
        <clipPath id="clip_path_89">
            <path d="M 120.75 131.65 C 120.87 133.58 119.45 145.36 118.33 154.21 C 117.51 160.69 114.62 166.7 110.13 171.28 L 103.57 177.97 C 100.06 181.55 95.34 183.56 90.42 183.56 L 90.42 183.56 C 85.44 183.56 80.66 181.5 77.14 177.84 L 70.76 171.2 C 66.41 166.67 63.6 160.8 62.78 154.46 C 61.69 146.1 60.3 135.2 60.3 133.72 C 60.3 116.36 73.85 102.29 90.56 102.3 C 106.42 102.3 119.73 115.21 120.75 131.65 Z"/>
        </clipPath>
        <clipPath id="clip_path_90">
            <path d="M 120.75 131.65 C 120.87 133.58 119.45 145.36 118.33 154.21 C 117.51 160.69 114.62 166.7 110.13 171.28 L 103.57 177.97 C 100.06 181.55 95.34 183.56 90.42 183.56 L 90.42 183.56 C 85.44 183.56 80.66 181.5 77.14 177.84 L 70.76 171.2 C 66.41 166.67 63.6 160.8 62.78 154.46 C 61.69 146.1 60.3 135.2 60.3 133.72 C 60.3 116.36 73.85 102.29 90.56 102.3 C 106.42 102.3 119.73 115.21 120.75 131.65 Z"/>
        </clipPath>
        <clipPath id="clip_path_102">
            <path d="M 93.57 109.86 L 86.8 109.86 C 77.1 109.86 69.23 101.99 69.23 92.29 L 69.23 92.29 C 69.23 82.59 77.1 74.72 86.8 74.72 L 93.57 74.72 C 103.27 74.72 111.14 82.59 111.14 92.29 L 111.14 92.29 C 111.14 101.99 103.27 109.86 93.57 109.86 Z"/>
        </clipPath>
        <clipPath id="clip_path_103">
            <path d="M 93.57 109.86 L 86.8 109.86 C 77.1 109.86 69.23 101.99 69.23 92.29 L 69.23 92.29 C 69.23 82.59 77.1 74.72 86.8 74.72 L 93.57 74.72 C 103.27 74.72 111.14 82.59 111.14 92.29 L 111.14 92.29 C 111.14 101.99 103.27 109.86 93.57 109.86 Z"/>
        </clipPath>
        <clipPath id="clip_path_104">
            <path d="M 113.47 119.7 L 114 125.23 L 118.63 131.45 C 119.87 133.12 120.44 135.19 120.22 137.26 L 119.32 145.79 L 120.47 145.79 L 122.2 130.83 C 123.13 123.17 120.93 115.46 116.11 109.44 L 116.11 109.44 C 110.66 102.64 102.42 98.68 93.7 98.68 L 87.3 98.68 C 78.58 98.68 70.34 102.64 64.89 109.44 L 64.89 109.44 C 60.07 115.46 57.87 123.17 58.8 130.83 L 60.53 145.79 L 61.67 145.79 L 60.75 137.33 C 60.52 135.25 61.09 133.17 62.34 131.49 L 67 125.24 L 67.54 120.41 C 67.96 116.72 71.37 114.12 75.04 114.7 L 90.58 117.18 L 105.63 113.96 C 109.43 113.14 113.1 115.82 113.47 119.7 Z"/>
        </clipPath>
        <clipPath id="clip_path_105">
            <path d="M 185.78 261.41 L -4.71 261.41 L 3 233.93 C 5.08 226.51 10.48 220.68 17.41 218.36 L 62.12 203.38 C 65.19 202.35 67.28 199.32 67.28 195.88 L 67.28 189.81 C 67.28 188.22 68.57 186.94 70.15 186.94 L 70.15 186.94 L 70.15 189.31 C 70.15 197.3 74.83 204.94 82.11 208.23 L 82.16 208.25 C 87.51 210.67 93.64 210.67 98.98 208.24 L 98.98 208.24 C 106.25 204.94 110.91 197.31 110.91 189.33 L 110.91 186.93 L 110.91 186.93 C 112.5 186.93 113.78 188.22 113.78 189.8 L 113.78 195.87 C 113.78 199.3 115.87 202.34 118.94 203.37 L 163.65 218.35 C 170.58 220.67 175.98 226.51 178.06 233.92 L 185.78 261.41 Z"/>
        </clipPath>
        <clipPath id="clip_path_106">
            <path d="M 185.78 261.41 L -4.71 261.41 L 3 233.93 C 5.08 226.51 10.48 220.68 17.41 218.36 L 62.12 203.38 C 65.19 202.35 67.28 199.32 67.28 195.88 L 67.28 189.81 C 67.28 188.22 68.57 186.94 70.15 186.94 L 70.15 186.94 L 70.15 189.31 C 70.15 197.3 74.83 204.94 82.11 208.23 L 82.16 208.25 C 87.51 210.67 93.64 210.67 98.98 208.24 L 98.98 208.24 C 106.25 204.94 110.91 197.31 110.91 189.33 L 110.91 186.93 L 110.91 186.93 C 112.5 186.93 113.78 188.22 113.78 189.8 L 113.78 195.87 C 113.78 199.3 115.87 202.34 118.94 203.37 L 163.65 218.35 C 170.58 220.67 175.98 226.51 178.06 233.92 L 185.78 261.41 Z"/>
        </clipPath>
        <clipPath id="clip_path_109">
            <path d="M 175 23.52 C 104.92 23.52 43.28 50.39 43.28 50.39 L 43.28 207.14 C 43.28 270.89 116.65 301.32 175 326.48 C 232.96 301.58 306.72 271.16 306.72 207.14 L 306.72 50.39 C 306.72 50.39 247.45 23.52 175 23.52 Z"/>
        </clipPath>
        <clipPath id="clip_group_38">
            <path d="M 175 23.52 C 104.92 23.52 43.28 50.39 43.28 50.39 L 43.28 207.14 C 43.28 270.89 116.65 301.32 175 326.48 C 232.96 301.58 306.72 271.16 306.72 207.14 L 306.72 50.39 C 306.72 50.39 247.45 23.52 175 23.52 Z"/>
        </clipPath>
        <clipPath id="clip_group_39">
            <path d="M 175 23.52 C 104.92 23.52 43.28 50.39 43.28 50.39 L 43.28 207.14 C 43.28 270.89 116.65 301.32 175 326.48 C 232.96 301.58 306.72 271.16 306.72 207.14 L 306.72 50.39 C 306.72 50.39 247.45 23.52 175 23.52 Z"/>
        </clipPath>
        <clipPath id="clip_path_112">
            <path d="M 175 23.52 C 104.92 23.52 43.28 50.39 43.28 50.39 L 43.28 207.14 C 43.28 270.89 116.65 301.32 175 326.48 C 232.96 301.58 306.72 271.16 306.72 207.14 L 306.72 50.39 C 306.72 50.39 247.45 23.52 175 23.52 Z"/>
        </clipPath>
        <clipPath id="clip_path_113">
            <path d="M 175 23.52 C 104.92 23.52 43.28 50.39 43.28 50.39 L 43.28 207.14 C 43.28 270.89 116.65 301.32 175 326.48 C 232.96 301.58 306.72 271.16 306.72 207.14 L 306.72 50.39 C 306.72 50.39 247.45 23.52 175 23.52 Z"/>
        </clipPath>
        <clipPath id="clip_path_114">
            <path d="M 175 23.52 C 104.92 23.52 43.28 50.39 43.28 50.39 L 43.28 207.14 C 43.28 270.89 116.65 301.32 175 326.48 C 232.96 301.58 306.72 271.16 306.72 207.14 L 306.72 50.39 C 306.72 50.39 247.45 23.52 175 23.52 Z"/>
        </clipPath>
        <clipPath id="clip_path_115">
            <path d="M 175 23.52 C 104.92 23.52 43.28 50.39 43.28 50.39 L 43.28 207.14 C 43.28 270.89 116.65 301.32 175 326.48 C 232.96 301.58 306.72 271.16 306.72 207.14 L 306.72 50.39 C 306.72 50.39 247.45 23.52 175 23.52 Z"/>
        </clipPath>
        <clipPath id="clip_path_116">
            <path d="M 175 23.52 C 104.92 23.52 43.28 50.39 43.28 50.39 L 43.28 207.14 C 43.28 270.89 116.65 301.32 175 326.48 C 232.96 301.58 306.72 271.16 306.72 207.14 L 306.72 50.39 C 306.72 50.39 247.45 23.52 175 23.52 Z"/>
        </clipPath>
        <clipPath id="clip_path_117">
            <path d="M 175 23.52 C 104.92 23.52 43.28 50.39 43.28 50.39 L 43.28 207.14 C 43.28 270.89 116.65 301.32 175 326.48 C 232.96 301.58 306.72 271.16 306.72 207.14 L 306.72 50.39 C 306.72 50.39 247.45 23.52 175 23.52 Z"/>
        </clipPath>
        <clipPath id="clip_path_118">
            <path d="M 175 23.52 C 104.92 23.52 43.28 50.39 43.28 50.39 L 43.28 207.14 C 43.28 270.89 116.65 301.32 175 326.48 C 232.96 301.58 306.72 271.16 306.72 207.14 L 306.72 50.39 C 306.72 50.39 247.45 23.52 175 23.52 Z"/>
        </clipPath>
        <clipPath id="clip_path_119">
            <path d="M 175 23.52 C 104.92 23.52 43.28 50.39 43.28 50.39 L 43.28 207.14 C 43.28 270.89 116.65 301.32 175 326.48 C 232.96 301.58 306.72 271.16 306.72 207.14 L 306.72 50.39 C 306.72 50.39 247.45 23.52 175 23.52 Z"/>
        </clipPath>
        <clipPath id="clip_path_120">
            <path d="M 175 23.52 C 104.92 23.52 43.28 50.39 43.28 50.39 L 43.28 207.14 C 43.28 270.89 116.65 301.32 175 326.48 C 232.96 301.58 306.72 271.16 306.72 207.14 L 306.72 50.39 C 306.72 50.39 247.45 23.52 175 23.52 Z"/>
        </clipPath>
        <clipPath id="clip_path_121">
            <path d="M 175 23.52 C 104.92 23.52 43.28 50.39 43.28 50.39 L 43.28 207.14 C 43.28 270.89 116.65 301.32 175 326.48 C 232.96 301.58 306.72 271.16 306.72 207.14 L 306.72 50.39 C 306.72 50.39 247.45 23.52 175 23.52 Z"/>
        </clipPath>
        <clipPath id="clip_path_122">
            <path d="M 175 23.52 C 104.92 23.52 43.28 50.39 43.28 50.39 L 43.28 207.14 C 43.28 270.89 116.65 301.32 175 326.48 C 232.96 301.58 306.72 271.16 306.72 207.14 L 306.72 50.39 C 306.72 50.39 247.45 23.52 175 23.52 Z"/>
        </clipPath>
        <clipPath id="clip_path_123">
            <path d="M 175 23.52 C 104.92 23.52 43.28 50.39 43.28 50.39 L 43.28 207.14 C 43.28 270.89 116.65 301.32 175 326.48 C 232.96 301.58 306.72 271.16 306.72 207.14 L 306.72 50.39 C 306.72 50.39 247.45 23.52 175 23.52 Z"/>
        </clipPath>
        <clipPath id="clip_path_124">
            <path d="M 175 23.52 C 104.92 23.52 43.28 50.39 43.28 50.39 L 43.28 207.14 C 43.28 270.89 116.65 301.32 175 326.48 C 232.96 301.58 306.72 271.16 306.72 207.14 L 306.72 50.39 C 306.72 50.39 247.45 23.52 175 23.52 Z"/>
        </clipPath>
        <clipPath id="clip_group_40">
            <path d="M 175 23.52 C 104.92 23.52 43.28 50.39 43.28 50.39 L 43.28 207.14 C 43.28 270.89 116.65 301.32 175 326.48 C 232.96 301.58 306.72 271.16 306.72 207.14 L 306.72 50.39 C 306.72 50.39 247.45 23.52 175 23.52 Z"/>
        </clipPath>
        <clipPath id="clip_group_41">
            <path d="M 175 23.52 C 104.92 23.52 43.28 50.39 43.28 50.39 L 43.28 207.14 C 43.28 270.89 116.65 301.32 175 326.48 C 232.96 301.58 306.72 271.16 306.72 207.14 L 306.72 50.39 C 306.72 50.39 247.45 23.52 175 23.52 Z"/>
        </clipPath>
        <clipPath id="clip_path_127">
            <path d="M 175 23.52 C 104.92 23.52 43.28 50.39 43.28 50.39 L 43.28 207.14 C 43.28 270.89 116.65 301.32 175 326.48 C 232.96 301.58 306.72 271.16 306.72 207.14 L 306.72 50.39 C 306.72 50.39 247.45 23.52 175 23.52 Z"/>
        </clipPath>
        <clipPath id="clip_path_128">
            <path d="M 175 23.52 C 104.92 23.52 43.28 50.39 43.28 50.39 L 43.28 207.14 C 43.28 270.89 116.65 301.32 175 326.48 C 232.96 301.58 306.72 271.16 306.72 207.14 L 306.72 50.39 C 306.72 50.39 247.45 23.52 175 23.52 Z"/>
        </clipPath>
        <clipPath id="clip_path_129">
            <path d="M 175 23.52 C 104.92 23.52 43.28 50.39 43.28 50.39 L 43.28 207.14 C 43.28 270.89 116.65 301.32 175 326.48 C 232.96 301.58 306.72 271.16 306.72 207.14 L 306.72 50.39 C 306.72 50.39 247.45 23.52 175 23.52 Z"/>
        </clipPath>
        <clipPath id="clip_path_130">
            <path d="M 175 23.52 C 104.92 23.52 43.28 50.39 43.28 50.39 L 43.28 207.14 C 43.28 270.89 116.65 301.32 175 326.48 C 232.96 301.58 306.72 271.16 306.72 207.14 L 306.72 50.39 C 306.72 50.39 247.45 23.52 175 23.52 Z"/>
        </clipPath>
        <clipPath id="clip_path_131">
            <path d="M 175 23.52 C 104.92 23.52 43.28 50.39 43.28 50.39 L 43.28 207.14 C 43.28 270.89 116.65 301.32 175 326.48 C 232.96 301.58 306.72 271.16 306.72 207.14 L 306.72 50.39 C 306.72 50.39 247.45 23.52 175 23.52 Z"/>
        </clipPath>
        <clipPath id="clip_path_132">
            <path d="M 175 23.52 C 104.92 23.52 43.28 50.39 43.28 50.39 L 43.28 207.14 C 43.28 270.89 116.65 301.32 175 326.48 C 232.96 301.58 306.72 271.16 306.72 207.14 L 306.72 50.39 C 306.72 50.39 247.45 23.52 175 23.52 Z"/>
        </clipPath>
        <clipPath id="clip_group_42">
            <path d="M 175 23.52 C 104.92 23.52 43.28 50.39 43.28 50.39 L 43.28 207.14 C 43.28 270.89 116.65 301.32 175 326.48 C 232.96 301.58 306.72 271.16 306.72 207.14 L 306.72 50.39 C 306.72 50.39 247.45 23.52 175 23.52 Z"/>
        </clipPath>
        <clipPath id="clip_group_43">
            <path d="M 175 23.52 C 104.92 23.52 43.28 50.39 43.28 50.39 L 43.28 207.14 C 43.28 270.89 116.65 301.32 175 326.48 C 232.96 301.58 306.72 271.16 306.72 207.14 L 306.72 50.39 C 306.72 50.39 247.45 23.52 175 23.52 Z"/>
        </clipPath>
        <clipPath id="clip_path_135">
            <path d="M 175 23.52 C 104.92 23.52 43.28 50.39 43.28 50.39 L 43.28 207.14 C 43.28 270.89 116.65 301.32 175 326.48 C 232.96 301.58 306.72 271.16 306.72 207.14 L 306.72 50.39 C 306.72 50.39 247.45 23.52 175 23.52 Z"/>
        </clipPath>
        <clipPath id="clip_path_136">
            <path d="M 175 23.52 C 104.92 23.52 43.28 50.39 43.28 50.39 L 43.28 207.14 C 43.28 270.89 116.65 301.32 175 326.48 C 232.96 301.58 306.72 271.16 306.72 207.14 L 306.72 50.39 C 306.72 50.39 247.45 23.52 175 23.52 Z"/>
        </clipPath>
        <clipPath id="clip_path_137">
            <path d="M 175 23.52 C 104.92 23.52 43.28 50.39 43.28 50.39 L 43.28 207.14 C 43.28 270.89 116.65 301.32 175 326.48 C 232.96 301.58 306.72 271.16 306.72 207.14 L 306.72 50.39 C 306.72 50.39 247.45 23.52 175 23.52 Z"/>
        </clipPath>
        <clipPath id="clip_group_44">
            <path d="M 175 23.52 C 104.92 23.52 43.28 50.39 43.28 50.39 L 43.28 207.14 C 43.28 270.89 116.65 301.32 175 326.48 C 232.96 301.58 306.72 271.16 306.72 207.14 L 306.72 50.39 C 306.72 50.39 247.45 23.52 175 23.52 Z"/>
        </clipPath>
        <clipPath id="clip_group_45">
            <path d="M 175 23.52 C 104.92 23.52 43.28 50.39 43.28 50.39 L 43.28 207.14 C 43.28 270.89 116.65 301.32 175 326.48 C 232.96 301.58 306.72 271.16 306.72 207.14 L 306.72 50.39 C 306.72 50.39 247.45 23.52 175 23.52 Z"/>
        </clipPath>
        <clipPath id="clip_path_140">
            <path d="M 175 23.52 C 104.92 23.52 43.28 50.39 43.28 50.39 L 43.28 207.14 C 43.28 270.89 116.65 301.32 175 326.48 C 232.96 301.58 306.72 271.16 306.72 207.14 L 306.72 50.39 C 306.72 50.39 247.45 23.52 175 23.52 Z"/>
        </clipPath>
        <clipPath id="clip_path_141">
            <path d="M 175 23.52 C 104.92 23.52 43.28 50.39 43.28 50.39 L 43.28 207.14 C 43.28 270.89 116.65 301.32 175 326.48 C 232.96 301.58 306.72 271.16 306.72 207.14 L 306.72 50.39 C 306.72 50.39 247.45 23.52 175 23.52 Z"/>
        </clipPath>
        <clipPath id="clip_path_142">
            <path d="M 175 23.52 C 104.92 23.52 43.28 50.39 43.28 50.39 L 43.28 207.14 C 43.28 270.89 116.65 301.32 175 326.48 C 232.96 301.58 306.72 271.16 306.72 207.14 L 306.72 50.39 C 306.72 50.39 247.45 23.52 175 23.52 Z"/>
        </clipPath>
        <clipPath id="clip_path_110">
            <path d="M 278.71 217.26 L 225.7 217.26 L 225.7 188.32 L 225.7 139.26 L 278.71 139.26 Z"/>
        </clipPath>
        <clipPath id="clip_path_111">
            <path d="M 278.71 217.26 L 225.7 217.26 L 225.7 188.32 L 225.7 139.26 L 278.71 139.26 Z"/>
        </clipPath>
        <clipPath id="clip_path_125">
            <path d="M 218.54 141.1 L 218.54 129.49 C 218.54 128.57 218.8 127.66 219.28 126.88 L 225.1 117.49 C 226.65 114.62 227.46 111.4 227.46 108.14 L 227.46 108.14 C 227.46 102.72 233.52 99.51 238.01 102.56 L 248.66 109.81 C 252.02 112.09 256.01 113.24 260.07 113.09 L 274.1 112.56 C 276.56 112.47 278.91 113.61 280.36 115.6 L 285.87 123.15 L 285.87 141.11 L 288.7 135.51 C 289.08 134.76 289.27 133.93 289.27 133.1 L 289.27 128.13 L 293.81 120.51 C 295.42 117.81 295.88 114.59 295.11 111.55 L 292.51 101.36 C 290.46 93.34 283.47 87.56 275.21 87.05 L 275.21 87.05 L 272.83 83.63 C 268.74 77.76 261.47 74.97 254.5 76.61 L 238.7 80.32 C 232.03 81.89 226.67 86.81 224.53 93.32 L 224.53 93.32 L 220.34 95.31 C 211.51 99.5 207.53 109.88 211.3 118.9 L 215.15 128.13 L 215.15 131.7 C 215.15 133.44 215.56 135.16 216.34 136.72 L 218.54 141.1 Z"/>
        </clipPath>
        <clipPath id="clip_path_126">
            <path d="M 218.54 141.1 L 218.54 129.49 C 218.54 128.57 218.8 127.66 219.28 126.88 L 225.1 117.49 C 226.65 114.62 227.46 111.4 227.46 108.14 L 227.46 108.14 C 227.46 102.72 233.52 99.51 238.01 102.56 L 248.66 109.81 C 252.02 112.09 256.01 113.24 260.07 113.09 L 274.1 112.56 C 276.56 112.47 278.91 113.61 280.36 115.6 L 285.87 123.15 L 285.87 141.11 L 288.7 135.51 C 289.08 134.76 289.27 133.93 289.27 133.1 L 289.27 128.13 L 293.81 120.51 C 295.42 117.81 295.88 114.59 295.11 111.55 L 292.51 101.36 C 290.46 93.34 283.47 87.56 275.21 87.05 L 275.21 87.05 L 272.83 83.63 C 268.74 77.76 261.47 74.97 254.5 76.61 L 238.7 80.32 C 232.03 81.89 226.67 86.81 224.53 93.32 L 224.53 93.32 L 220.34 95.31 C 211.51 99.5 207.53 109.88 211.3 118.9 L 215.15 128.13 L 215.15 131.7 C 215.15 133.44 215.56 135.16 216.34 136.72 L 218.54 141.1 Z"/>
        </clipPath>
        <clipPath id="clip_path_133">
            <path d="M 278.72 182.08 L 303.75 199.95 C 305.34 201.09 306.36 202.86 306.55 204.8 L 308.19 221.97 C 308.44 224.61 306.37 226.89 303.72 226.89 L 278.72 226.89 L 278.72 182.08 Z"/>
        </clipPath>
        <clipPath id="clip_path_134">
            <path d="M 278.72 182.08 L 303.75 199.95 C 305.34 201.09 306.36 202.86 306.55 204.8 L 308.19 221.97 C 308.44 224.61 306.37 226.89 303.72 226.89 L 278.72 226.89 L 278.72 182.08 Z"/>
        </clipPath>
        <clipPath id="clip_path_138">
            <path d="M 148.87 292.39 L 178.87 285.17 L 189.68 268.34 C 192.45 264.49 197.98 264.02 201.39 267.32 L 204.48 270.27 C 205.56 271.66 207.61 272.28 209.6 271.21 C 210.52 270.72 211.12 269.82 211.33 268.83 C 211.51 268.04 212.32 267.58 213.11 267.79 C 213.36 267.86 213.59 267.9 213.78 267.9 C 215.56 267.9 217.06 266.68 217.51 265.04 C 217.53 264.99 217.53 264.9 217.55 264.81 C 217.6 264.12 218.26 263.64 218.91 263.86 C 219.28 263.98 219.67 264.04 220.08 264.04 C 221.81 264.04 223.28 262.89 223.75 261.32 C 223.94 260.65 224.54 260.19 225.25 260.19 L 226.34 260.19 C 228.48 260.19 230.21 258.46 230.21 256.32 C 230.21 256.02 228.63 248.13 227.9 244.51 C 227.67 243.39 226.92 242.44 225.88 241.96 L 214.98 236.96 C 214.36 236.48 213.6 236.17 212.79 236.13 C 211.22 236.06 209.84 236.92 209.15 238.23 C 208.73 239.08 207.86 239.59 206.94 239.55 L 206.87 239.55 C 205.39 239.55 204.08 240.4 203.44 241.65 C 203 242.5 202.15 243.03 201.2 242.99 L 201.15 242.99 C 199.67 242.99 198.36 243.84 197.72 245.09 C 197.28 245.94 196.43 246.47 195.48 246.43 L 195.39 246.43 C 193.54 246.43 191.98 247.72 191.63 249.45 L 191.61 249.5 L 190.02 253.77 C 188.04 259.12 184.69 263.85 180.29 267.49 L 148.87 292.39 Z"/>
        </clipPath>
        <clipPath id="clip_path_139">
            <path d="M 148.87 292.39 L 178.87 285.17 L 189.68 268.34 C 192.45 264.49 197.98 264.02 201.39 267.32 L 204.48 270.27 C 205.56 271.66 207.61 272.28 209.6 271.21 C 210.52 270.72 211.12 269.82 211.33 268.83 C 211.51 268.04 212.32 267.58 213.11 267.79 C 213.36 267.86 213.59 267.9 213.78 267.9 C 215.56 267.9 217.06 266.68 217.51 265.04 C 217.53 264.99 217.53 264.9 217.55 264.81 C 217.6 264.12 218.26 263.64 218.91 263.86 C 219.28 263.98 219.67 264.04 220.08 264.04 C 221.81 264.04 223.28 262.89 223.75 261.32 C 223.94 260.65 224.54 260.19 225.25 260.19 L 226.34 260.19 C 228.48 260.19 230.21 258.46 230.21 256.32 C 230.21 256.02 228.63 248.13 227.9 244.51 C 227.67 243.39 226.92 242.44 225.88 241.96 L 214.98 236.96 C 214.36 236.48 213.6 236.17 212.79 236.13 C 211.22 236.06 209.84 236.92 209.15 238.23 C 208.73 239.08 207.86 239.59 206.94 239.55 L 206.87 239.55 C 205.39 239.55 204.08 240.4 203.44 241.65 C 203 242.5 202.15 243.03 201.2 242.99 L 201.15 242.99 C 199.67 242.99 198.36 243.84 197.72 245.09 C 197.28 245.94 196.43 246.47 195.48 246.43 L 195.39 246.43 C 193.54 246.43 191.98 247.72 191.63 249.45 L 191.61 249.5 L 190.02 253.77 C 188.04 259.12 184.69 263.85 180.29 267.49 L 148.87 292.39 Z"/>
        </clipPath>
        <clipPath id="clip_path_143">
            <path d="M 175 23.52 C 104.92 23.52 43.28 50.39 43.28 50.39 L 43.28 207.14 C 43.28 270.89 116.65 301.32 175 326.48 C 232.96 301.58 306.72 271.16 306.72 207.14 L 306.72 50.39 C 306.72 50.39 247.45 23.52 175 23.52 Z"/>
        </clipPath>
        <clipPath id="clip_path_144">
            <path d="M 175 23.52 C 104.92 23.52 43.28 50.39 43.28 50.39 L 43.28 207.14 C 43.28 270.89 116.65 301.32 175 326.48 C 232.96 301.58 306.72 271.16 306.72 207.14 L 306.72 50.39 C 306.72 50.39 247.45 23.52 175 23.52 Z"/>
        </clipPath>
        <clipPath id="clip_path_145">
            <path d="M 175 23.52 C 104.92 23.52 43.28 50.39 43.28 50.39 L 43.28 207.14 C 43.28 270.89 116.65 301.32 175 326.48 C 232.96 301.58 306.72 271.16 306.72 207.14 L 306.72 50.39 C 306.72 50.39 247.45 23.52 175 23.52 Z"/>
        </clipPath>
        <clipPath id="clip_path_146">
            <path d="M 175 23.52 C 104.92 23.52 43.28 50.39 43.28 50.39 L 43.28 207.14 C 43.28 270.89 116.65 301.32 175 326.48 C 232.96 301.58 306.72 271.16 306.72 207.14 L 306.72 50.39 C 306.72 50.39 247.45 23.52 175 23.52 Z"/>
        </clipPath>
        <clipPath id="clip_path_147">
            <path d="M 175 23.52 C 104.92 23.52 43.28 50.39 43.28 50.39 L 43.28 207.14 C 43.28 270.89 116.65 301.32 175 326.48 C 232.96 301.58 306.72 271.16 306.72 207.14 L 306.72 50.39 C 306.72 50.39 247.45 23.52 175 23.52 Z"/>
        </clipPath>
        <clipPath id="clip_group_47">
            <path d="M 175 23.52 C 104.92 23.52 43.28 50.39 43.28 50.39 L 43.28 207.14 C 43.28 270.89 116.65 301.32 175 326.48 C 232.96 301.58 306.72 271.16 306.72 207.14 L 306.72 50.39 C 306.72 50.39 247.45 23.52 175 23.52 Z"/>
        </clipPath>
        <clipPath id="clip_group_48">
            <path d="M 175 23.52 C 104.92 23.52 43.28 50.39 43.28 50.39 L 43.28 207.14 C 43.28 270.89 116.65 301.32 175 326.48 C 232.96 301.58 306.72 271.16 306.72 207.14 L 306.72 50.39 C 306.72 50.39 247.45 23.52 175 23.52 Z"/>
        </clipPath>
        <clipPath id="clip_path_150">
            <path d="M 175 23.52 C 104.92 23.52 43.28 50.39 43.28 50.39 L 43.28 207.14 C 43.28 270.89 116.65 301.32 175 326.48 C 232.96 301.58 306.72 271.16 306.72 207.14 L 306.72 50.39 C 306.72 50.39 247.45 23.52 175 23.52 Z"/>
        </clipPath>
        <clipPath id="clip_path_148">
            <path d="M 280.95 146.98 L 280.95 173.11 C 280.95 174.89 280.16 176.57 278.8 177.71 L 273.6 182.05 C 261.55 192.11 244.1 192.37 231.76 182.67 L 225.44 177.71 C 223.99 176.57 223.15 174.84 223.15 173 L 223.15 146.98 C 223.15 145.33 224.49 143.98 226.15 143.98 L 234.83 143.98 C 238.05 143.98 241.15 142.71 243.44 140.45 L 243.44 140.45 C 248.22 135.75 255.88 135.75 260.66 140.44 L 260.67 140.45 C 262.97 142.71 266.06 143.97 269.28 143.97 L 277.96 143.97 C 279.6 143.98 280.95 145.32 280.95 146.98 Z"/>
        </clipPath>
        <clipPath id="clip_path_149">
            <path d="M 280.95 146.98 L 280.95 173.11 C 280.95 174.89 280.16 176.57 278.8 177.71 L 273.6 182.05 C 261.55 192.11 244.1 192.37 231.76 182.67 L 225.44 177.71 C 223.99 176.57 223.15 174.84 223.15 173 L 223.15 146.98 C 223.15 145.33 224.49 143.98 226.15 143.98 L 234.83 143.98 C 238.05 143.98 241.15 142.71 243.44 140.45 L 243.44 140.45 C 248.22 135.75 255.88 135.75 260.66 140.44 L 260.67 140.45 C 262.97 142.71 266.06 143.97 269.28 143.97 L 277.96 143.97 C 279.6 143.98 280.95 145.32 280.95 146.98 Z"/>
        </clipPath>
        <clipPath id="clip_path_156">
            <path d="M 111.96 153.34 L 111.96 173.1 C 111.96 174.44 111.36 175.72 110.33 176.58 L 106.4 179.86 C 97.29 187.47 84.09 187.67 74.76 180.33 L 69.98 176.58 C 68.89 175.72 68.25 174.41 68.25 173.02 L 68.25 153.34 C 68.25 152.09 69.26 151.07 70.52 151.07 L 77.08 151.07 C 79.52 151.07 81.86 150.11 83.59 148.4 L 83.59 148.4 C 87.2 144.84 93 144.84 96.61 148.4 L 96.62 148.41 C 98.36 150.12 100.69 151.07 103.13 151.07 L 109.69 151.07 C 110.94 151.07 111.96 152.09 111.96 153.34 Z"/>
        </clipPath>
        <clipPath id="clip_path_157">
            <path d="M 111.96 153.34 L 111.96 173.1 C 111.96 174.44 111.36 175.72 110.33 176.58 L 106.4 179.86 C 97.29 187.47 84.09 187.67 74.76 180.33 L 69.98 176.58 C 68.89 175.72 68.25 174.41 68.25 173.02 L 68.25 153.34 C 68.25 152.09 69.26 151.07 70.52 151.07 L 77.08 151.07 C 79.52 151.07 81.86 150.11 83.59 148.4 L 83.59 148.4 C 87.2 144.84 93 144.84 96.61 148.4 L 96.62 148.41 C 98.36 150.12 100.69 151.07 103.13 151.07 L 109.69 151.07 C 110.94 151.07 111.96 152.09 111.96 153.34 Z"/>
        </clipPath>
        <clipPath id="clip_path_159">
            <path d="M 113.17 134.45 L 110.1 134.04 L 110.11 134.05 C 110.02 134.03 109.94 134.01 109.86 133.99 L 107.77 133.65 C 105.89 133.34 103.98 133.28 102.1 133.46 C 98.94 133.76 96.28 135.73 94.95 138.49 C 94.56 139.31 93.62 139.74 92.75 139.5 C 92.04 139.31 91.32 139.21 90.6 139.21 C 89.88 139.21 89.15 139.31 88.45 139.5 C 87.58 139.74 86.64 139.3 86.25 138.49 C 84.92 135.73 82.25 133.76 79.1 133.46 C 77.22 133.28 75.31 133.34 73.43 133.65 L 71.34 133.99 C 71.25 134 71.17 134.03 71.09 134.05 L 71.1 134.04 L 68.03 134.45 C 65.76 134.75 64.05 136.81 64.36 139.07 C 64.41 139.4 64.49 139.7 64.61 139.96 L 64.61 139.96 C 65.25 141.29 65.82 142.66 66.3 144.06 C 66.55 144.8 66.86 145.51 67.23 146.19 C 67.97 147.54 68.94 148.75 70.14 149.75 C 72.82 151.97 75.92 152.85 78.94 152.35 C 83.07 151.68 86.32 148.58 87.04 144.64 C 87.12 144.21 87.17 143.76 87.19 143.32 C 87.23 142.46 87.83 141.72 88.66 141.52 C 89.31 141.36 89.96 141.28 90.61 141.28 C 91.26 141.28 91.92 141.36 92.56 141.52 C 93.39 141.72 93.99 142.47 94.03 143.32 C 94.05 143.77 94.11 144.21 94.18 144.64 C 94.9 148.58 98.16 151.68 102.28 152.35 C 105.3 152.85 108.4 151.97 111.08 149.75 C 112.28 148.75 113.25 147.54 113.99 146.19 C 114.36 145.51 114.67 144.8 114.92 144.06 C 115.39 142.66 115.97 141.3 116.61 139.96 L 116.61 139.96 C 116.74 139.7 116.82 139.4 116.86 139.07 C 117.15 136.81 115.44 134.75 113.17 134.45 Z M 85.5 144.34 C 85.5 144.34 85.5 144.35 85.5 144.35 C 84.91 147.62 82.2 150.19 78.78 150.75 C 76.27 151.16 73.7 150.43 71.48 148.59 C 70.48 147.76 69.67 146.76 69.06 145.64 C 68.45 144.52 68.03 143.28 67.82 142.01 C 67.75 141.61 67.73 141.22 67.75 140.84 L 67.75 140.83 C 67.8 139.71 68.19 138.66 68.81 137.78 C 69.65 136.61 70.94 135.76 72.47 135.51 L 74.2 135.23 C 75.76 134.97 77.35 134.92 78.92 135.07 C 81.06 135.27 82.92 136.4 84.14 138.04 C 84.61 138.68 84.92 139.44 85.09 140.22 C 85.22 140.81 85.38 141.69 85.49 142.35 C 85.59 143.01 85.62 143.68 85.5 144.34 Z M 113.41 140.84 C 113.43 141.23 113.4 141.62 113.34 142.01 C 113.13 143.28 112.71 144.52 112.1 145.64 C 111.49 146.76 110.68 147.77 109.68 148.59 C 107.46 150.43 104.89 151.16 102.38 150.75 C 98.96 150.19 96.25 147.62 95.66 144.35 C 95.66 144.34 95.66 144.34 95.66 144.34 C 95.54 143.68 95.57 143.01 95.68 142.36 C 95.79 141.7 95.94 140.82 96.08 140.23 C 96.25 139.45 96.55 138.69 97.03 138.05 C 98.25 136.4 100.11 135.27 102.25 135.08 C 103.81 134.93 105.4 134.98 106.97 135.24 L 108.7 135.52 C 110.23 135.77 111.52 136.62 112.36 137.79 C 112.97 138.66 113.36 139.71 113.41 140.84 L 113.41 140.84 Z"/>
        </clipPath>
        <clipPath id="clip_path_160">
            <path d="M 113.17 134.45 L 110.1 134.04 L 110.11 134.05 C 110.02 134.03 109.94 134.01 109.86 133.99 L 107.77 133.65 C 105.89 133.34 103.98 133.28 102.1 133.46 C 98.94 133.76 96.28 135.73 94.95 138.49 C 94.56 139.31 93.62 139.74 92.75 139.5 C 92.04 139.31 91.32 139.21 90.6 139.21 C 89.88 139.21 89.15 139.31 88.45 139.5 C 87.58 139.74 86.64 139.3 86.25 138.49 C 84.92 135.73 82.25 133.76 79.1 133.46 C 77.22 133.28 75.31 133.34 73.43 133.65 L 71.34 133.99 C 71.25 134 71.17 134.03 71.09 134.05 L 71.1 134.04 L 68.03 134.45 C 65.76 134.75 64.05 136.81 64.36 139.07 C 64.41 139.4 64.49 139.7 64.61 139.96 L 64.61 139.96 C 65.25 141.29 65.82 142.66 66.3 144.06 C 66.55 144.8 66.86 145.51 67.23 146.19 C 67.97 147.54 68.94 148.75 70.14 149.75 C 72.82 151.97 75.92 152.85 78.94 152.35 C 83.07 151.68 86.32 148.58 87.04 144.64 C 87.12 144.21 87.17 143.76 87.19 143.32 C 87.23 142.46 87.83 141.72 88.66 141.52 C 89.31 141.36 89.96 141.28 90.61 141.28 C 91.26 141.28 91.92 141.36 92.56 141.52 C 93.39 141.72 93.99 142.47 94.03 143.32 C 94.05 143.77 94.11 144.21 94.18 144.64 C 94.9 148.58 98.16 151.68 102.28 152.35 C 105.3 152.85 108.4 151.97 111.08 149.75 C 112.28 148.75 113.25 147.54 113.99 146.19 C 114.36 145.51 114.67 144.8 114.92 144.06 C 115.39 142.66 115.97 141.3 116.61 139.96 L 116.61 139.96 C 116.74 139.7 116.82 139.4 116.86 139.07 C 117.15 136.81 115.44 134.75 113.17 134.45 Z M 85.5 144.34 C 85.5 144.34 85.5 144.35 85.5 144.35 C 84.91 147.62 82.2 150.19 78.78 150.75 C 76.27 151.16 73.7 150.43 71.48 148.59 C 70.48 147.76 69.67 146.76 69.06 145.64 C 68.45 144.52 68.03 143.28 67.82 142.01 C 67.75 141.61 67.73 141.22 67.75 140.84 L 67.75 140.83 C 67.8 139.71 68.19 138.66 68.81 137.78 C 69.65 136.61 70.94 135.76 72.47 135.51 L 74.2 135.23 C 75.76 134.97 77.35 134.92 78.92 135.07 C 81.06 135.27 82.92 136.4 84.14 138.04 C 84.61 138.68 84.92 139.44 85.09 140.22 C 85.22 140.81 85.38 141.69 85.49 142.35 C 85.59 143.01 85.62 143.68 85.5 144.34 Z M 113.41 140.84 C 113.43 141.23 113.4 141.62 113.34 142.01 C 113.13 143.28 112.71 144.52 112.1 145.64 C 111.49 146.76 110.68 147.77 109.68 148.59 C 107.46 150.43 104.89 151.16 102.38 150.75 C 98.96 150.19 96.25 147.62 95.66 144.35 C 95.66 144.34 95.66 144.34 95.66 144.34 C 95.54 143.68 95.57 143.01 95.68 142.36 C 95.79 141.7 95.94 140.82 96.08 140.23 C 96.25 139.45 96.55 138.69 97.03 138.05 C 98.25 136.4 100.11 135.27 102.25 135.08 C 103.81 134.93 105.4 134.98 106.97 135.24 L 108.7 135.52 C 110.23 135.77 111.52 136.62 112.36 137.79 C 112.97 138.66 113.36 139.71 113.41 140.84 L 113.41 140.84 Z"/>
        </clipPath>
    </defs>
    <path
        id="path_81"
        d="M -489.96 272.65 L -489.96 163.11 L -548.15 175.69 C -554.98 177.17 -559.85 183.2 -559.85 190.19 L -559.85 234.33 C -559.85 240.37 -556.19 245.81 -550.59 248.08 L -489.96 272.65 Z"
        fill="#535fcf"/>
    <path
        id="path_82"
        d="M -489.96 272.65 L -489.96 163.11 L -431.77 175.69 C -424.94 177.17 -420.07 183.2 -420.07 190.19 L -420.07 234.33 C -420.07 240.37 -423.73 245.81 -429.33 248.08 L -489.96 272.65 Z"
        fill="#535fcf"/>
    <path
        id="path_83"
        d="M -847.44 234.54 L -847.44 157.56 L -888.32 166.4 C -893.12 167.44 -896.54 171.68 -896.54 176.59 L -896.54 207.61 C -896.54 211.85 -893.97 215.68 -890.03 217.27 L -847.44 234.54 Z"
        fill="#535fcf"/>
    <path
        id="path_84"
        d="M -847.44 234.54 L -847.44 157.56 L -806.56 166.4 C -801.76 167.44 -798.34 171.68 -798.34 176.59 L -798.34 207.61 C -798.34 211.85 -800.91 215.68 -804.85 217.27 L -847.44 234.54 Z"
        fill="#535fcf"/>
    <g id="group_27">
        <path
            id="path_85"
            clip-path="url(#clip_path_85)"
            d="M -34.04 -19.1 L 392.61 -19.1 L 392.61 356.52 L -34.04 356.52 Z"
            fill="#dddddd"/>
    </g>
    <g id="group_37">
        <path
            id="path_86"
            clip-path="url(#clip_path_86)"
            d="M -7.23 159.57 C -4.56 151.42 3.05 145.91 11.62 145.91 L 203.44 145.91 L 395.26 145.91 C 403.84 145.91 411.44 151.42 414.11 159.57 L 444.76 253.07 C 447.21 260.53 441.65 268.21 433.79 268.21 L 203.45 268.21 L -26.91 268.21 C -34.77 268.21 -40.33 260.53 -37.88 253.07 L -7.23 159.57 Z"
            fill="#c6c6c6"/>
        <g
            id="group_28"
            clip-path="url(#clip_group_28)">
            <path
                id="path_87"
                clip-path="url(#clip_path_87)"
                d="M 70.16 168.16 L 110.92 168.16 L 110.92 212.45 L 70.16 212.45 Z"
                fill="#c54600"/>
        </g>
        <g
            id="group_29"
            clip-path="url(#clip_group_29)">
            <path
                id="path_88"
                clip-path="url(#clip_path_88)"
                d="M 73.67 175.71 C 76.5 179.45 85.99 191 102.53 194.53 C 110.63 196.26 117.58 195.46 122.05 194.53 C 120.42 185.89 118.8 177.24 117.17 168.6 C 102.67 170.97 88.17 173.34 73.67 175.71 Z"
                fill="#5c3c2e"/>
        </g>
        <g
            id="group_30"
            clip-path="url(#clip_group_30)">
            <path
                id="path_89"
                clip-path="url(#clip_path_89)"
                d="M 120.75 131.65 C 120.87 133.58 119.45 145.36 118.33 154.21 C 117.51 160.69 114.62 166.7 110.13 171.28 L 103.57 177.97 C 100.06 181.55 95.34 183.56 90.42 183.56 L 90.42 183.56 C 85.44 183.56 80.66 181.5 77.14 177.84 L 70.76 171.2 C 66.41 166.67 63.6 160.8 62.78 154.46 C 61.69 146.1 60.3 135.2 60.3 133.72 C 60.3 116.36 73.85 102.29 90.56 102.3 C 106.42 102.3 119.73 115.21 120.75 131.65 Z"
                fill="#c54600"/>
        </g>
        <g
            id="group_31"
            clip-path="url(#clip_group_31)">
            <path
                id="path_90"
                clip-path="url(#clip_path_90)"
                d="M 94.92 132.43 L 94.92 132.43 C 92.83 134.16 91.52 136.65 91.28 139.35 L 90.4 149.35 L 83.71 177.79 L 56.1 175.28 L 52.75 102.08 L 90.14 101.87 L 93.28 104.62 C 99.71 110.26 103.35 118.44 103.25 126.99 L 103.22 129.31 L 103.21 129.33 C 100.18 129.41 97.26 130.5 94.92 132.43 Z"
                fill="#e65300"/>
        </g>
        <path
            id="path_91"
            clip-path="url(#clip_path_91)"
            d="M 87.35 158.08 L 87.04 158.19 C 86.66 158.32 86.24 158.18 86.01 157.85 L 86.01 157.85 C 85.73 157.44 85.83 156.88 86.24 156.6 L 86.24 156.6 C 86.57 156.37 87.02 156.39 87.33 156.65 L 89.52 158.49 L 89.52 158.49 C 88.91 157.98 88.09 157.82 87.35 158.08 Z"
            fill="#a33b04"/>
        <path
            id="path_92"
            clip-path="url(#clip_path_92)"
            d="M 93.72 158.08 L 94.03 158.19 C 94.41 158.32 94.83 158.18 95.06 157.85 L 95.06 157.85 C 95.34 157.44 95.24 156.88 94.83 156.6 L 94.83 156.6 C 94.5 156.37 94.05 156.39 93.74 156.65 L 91.55 158.49 L 91.55 158.49 C 92.16 157.98 92.98 157.82 93.72 158.08 Z"
            fill="#a33b04"/>
        <path
            id="path_93"
            clip-path="url(#clip_path_93)"
            d="M 68.3 133.19 L 69.87 131.33 C 71.39 129.53 73.72 128.64 76.05 128.98 L 82.12 129.86 L 81.64 132.41 L 74.64 131.13 C 73.49 130.92 72.31 131.1 71.28 131.64 L 68.3 133.19 Z"
            fill="#000000"/>
        <path
            id="path_94"
            clip-path="url(#clip_path_94)"
            d="M 112.77 133.19 L 111.2 131.33 C 109.68 129.53 107.35 128.64 105.02 128.98 L 98.95 129.86 L 99.43 132.41 L 106.43 131.13 C 107.58 130.92 108.76 131.1 109.79 131.64 L 112.77 133.19 Z"
            fill="#000000"/>
        <path
            id="path_95"
            clip-path="url(#clip_path_95)"
            d="M 76.77 140.62 M 74.91 140.62 C 74.91 140.227 75.034 139.844 75.265 139.527 C 75.496 139.209 75.822 138.972 76.195 138.851 C 76.569 138.73 76.971 138.73 77.345 138.851 C 77.718 138.972 78.044 139.209 78.275 139.527 C 78.506 139.844 78.63 140.227 78.63 140.62 C 78.63 141.013 78.506 141.396 78.275 141.713 C 78.044 142.031 77.718 142.268 77.345 142.389 C 76.971 142.51 76.569 142.51 76.195 142.389 C 75.822 142.268 75.496 142.031 75.265 141.713 C 75.034 141.396 74.91 141.013 74.91 140.62"
            fill="#000000"/>
        <path
            id="path_96"
            clip-path="url(#clip_path_96)"
            d="M 104.3 140.64 M 102.44 140.64 C 102.44 140.147 102.636 139.673 102.985 139.325 C 103.333 138.976 103.807 138.78 104.3 138.78 C 104.793 138.78 105.267 138.976 105.615 139.325 C 105.964 139.673 106.16 140.147 106.16 140.64 C 106.16 141.133 105.964 141.607 105.615 141.955 C 105.267 142.304 104.793 142.5 104.3 142.5 C 103.807 142.5 103.333 142.304 102.985 141.955 C 102.636 141.607 102.44 141.133 102.44 140.64"
            fill="#000000"/>
        <path
            id="path_97"
            clip-path="url(#clip_path_97)"
            d="M 82.03 142.05 L 82.03 142.05 C 81.52 141.1 80.79 140.27 79.92 139.63 L 79.92 139.63 C 79.07 139.01 78.06 138.67 77.02 138.64 L 76.83 138.63 C 75.27 138.58 73.73 138.98 72.39 139.78 L 72.39 139.78 C 71.82 140.12 71.16 140.3 70.5 140.3 L 69.55 140.3 L 72.34 141.56 L 72.34 141.56 C 72.34 141.3 72.46 141.05 72.66 140.89 L 73.03 140.58 C 74.05 139.73 75.34 139.27 76.67 139.27 L 76.67 139.27 C 77.62 139.27 78.56 139.51 79.39 139.96 L 79.39 139.96 C 79.85 140.21 80.27 140.51 80.66 140.85 L 82.03 142.05 Z"
            fill="#000000"/>
        <path
            id="path_98"
            clip-path="url(#clip_path_98)"
            d="M 99.04 142.05 L 99.04 142.05 C 99.55 141.1 100.28 140.27 101.15 139.63 L 101.15 139.63 C 102 139.01 103.01 138.67 104.05 138.64 L 104.24 138.63 C 105.8 138.58 107.34 138.98 108.68 139.78 L 108.68 139.78 C 109.25 140.12 109.91 140.3 110.57 140.3 L 111.52 140.3 L 108.73 141.56 L 108.73 141.56 C 108.73 141.3 108.61 141.05 108.41 140.89 L 108.04 140.58 C 107.02 139.73 105.73 139.27 104.4 139.27 L 104.4 139.27 C 103.45 139.27 102.51 139.51 101.68 139.96 L 101.68 139.96 C 101.22 140.21 100.8 140.51 100.41 140.85 L 99.04 142.05 Z"
            fill="#000000"/>
        <path
            id="path_99"
            clip-path="url(#clip_path_99)"
            d="M 101.01 165.37 L 96.98 168.09 C 93.08 170.72 87.98 170.72 84.09 168.09 L 80.06 165.37 C 80.49 165.66 80.99 165.81 81.49 165.81 C 81.91 165.81 82.33 165.71 82.71 165.51 L 86.73 163.34 C 87.5 162.92 88.43 162.93 89.19 163.37 L 89.76 163.7 C 90.24 163.97 90.83 163.97 91.31 163.7 L 91.88 163.37 C 92.64 162.94 93.57 162.93 94.34 163.34 L 98.36 165.51 C 98.74 165.72 99.16 165.81 99.58 165.81 C 100.08 165.81 100.58 165.66 101.01 165.37 Z"
            fill="#a33b04"/>
        <path
            id="path_100"
            clip-path="url(#clip_path_100)"
            d="M 66.11 141.35 L 60.02 141.35 L 59.75 139.22 L 66.11 139.22 Z"
            fill="#ffd3bc"/>
        <path
            id="path_101"
            clip-path="url(#clip_path_101)"
            d="M 114.9 141.35 L 120.99 141.35 L 121.25 139.22 L 114.9 139.22 Z"
            fill="#ffb48c"/>
        <g
            id="group_32"
            clip-path="url(#clip_group_32)">
            <path
                id="path_102"
                clip-path="url(#clip_path_102)"
                d="M 93.57 109.86 L 86.8 109.86 C 77.1 109.86 69.23 101.99 69.23 92.29 L 69.23 92.29 C 69.23 82.59 77.1 74.72 86.8 74.72 L 93.57 74.72 C 103.27 74.72 111.14 82.59 111.14 92.29 L 111.14 92.29 C 111.14 101.99 103.27 109.86 93.57 109.86 Z"
                fill="#5c3c2e"/>
        </g>
        <g
            id="group_33"
            clip-path="url(#clip_group_33)">
            <path
                id="path_103"
                clip-path="url(#clip_path_103)"
                d="M 77.43 92.04 C 77.415 95.639 78.945 99.15 81.799 102.066 C 84.653 104.982 88.686 107.154 93.316 108.268 C 97.945 109.382 102.935 109.382 107.564 108.268 C 112.194 107.154 116.227 104.982 119.081 102.066 C 121.935 99.15 123.465 95.639 123.45 92.04 C 123.465 88.441 121.935 84.93 119.081 82.014 C 116.227 79.098 112.194 76.926 107.564 75.812 C 102.935 74.698 97.945 74.698 93.316 75.812 C 88.686 76.926 84.653 79.098 81.799 82.014 C 78.945 84.93 77.415 88.441 77.43 92.04 Z"
                fill="#000000"/>
        </g>
        <g
            id="group_34"
            clip-path="url(#clip_group_34)">
            <path
                id="path_104"
                clip-path="url(#clip_path_104)"
                d="M 113.47 119.7 L 114 125.23 L 118.63 131.45 C 119.87 133.12 120.44 135.19 120.22 137.26 L 119.32 145.79 L 120.47 145.79 L 122.2 130.83 C 123.13 123.17 120.93 115.46 116.11 109.44 L 116.11 109.44 C 110.66 102.64 102.42 98.68 93.7 98.68 L 87.3 98.68 C 78.58 98.68 70.34 102.64 64.89 109.44 L 64.89 109.44 C 60.07 115.46 57.87 123.17 58.8 130.83 L 60.53 145.79 L 61.67 145.79 L 60.75 137.33 C 60.52 135.25 61.09 133.17 62.34 131.49 L 67 125.24 L 67.54 120.41 C 67.96 116.72 71.37 114.12 75.04 114.7 L 90.58 117.18 L 105.63 113.96 C 109.43 113.14 113.1 115.82 113.47 119.7 Z"
                fill="#000000"/>
        </g>
        <g
            id="group_35"
            clip-path="url(#clip_group_35)">
            <path
                id="path_105"
                clip-path="url(#clip_path_105)"
                d="M 185.78 261.41 L -4.71 261.41 L 3 233.93 C 5.08 226.51 10.48 220.68 17.41 218.36 L 62.12 203.38 C 65.19 202.35 67.28 199.32 67.28 195.88 L 67.28 189.81 C 67.28 188.22 68.57 186.94 70.15 186.94 L 70.15 186.94 L 70.15 189.31 C 70.15 197.3 74.83 204.94 82.11 208.23 L 82.16 208.25 C 87.51 210.67 93.64 210.67 98.98 208.24 L 98.98 208.24 C 106.25 204.94 110.91 197.31 110.91 189.33 L 110.91 186.93 L 110.91 186.93 C 112.5 186.93 113.78 188.22 113.78 189.8 L 113.78 195.87 C 113.78 199.3 115.87 202.34 118.94 203.37 L 163.65 218.35 C 170.58 220.67 175.98 226.51 178.06 233.92 L 185.78 261.41 Z"
                fill="#ffffff"/>
        </g>
        <g
            id="group_36"
            clip-path="url(#clip_group_36)">
            <path
                id="path_106"
                clip-path="url(#clip_path_106)"
                d="M 118.4 191.23 L 113.96 194.81 L 112.2 204.28 C 112.72 207.11 114.88 209.35 117.68 209.98 L 165.27 219.21 L 118.4 191.23 Z"
                fill="#dddddd"/>
        </g>
        <path
            id="path_107"
            clip-path="url(#clip_path_107)"
            d="M 158.19 261.41 L 158.19 261.41 L 129.72 321.55 L 22.88 261.41 L 22.88 261.41 C 22.68 257.3 23.43 253.2 25.08 249.43 L 32.04 233.47 C 33.39 230.37 34.09 227.01 34.09 223.63 L 34.09 212.77 L 50.64 207.22 L 50.68 213.59 C 50.68 219.88 53.21 225.9 57.71 230.29 L 57.71 230.29 C 60.94 233.44 65.01 235.59 69.43 236.48 L 69.43 236.48 C 83.36 239.28 97.71 239.28 111.65 236.48 L 111.65 236.48 C 116.07 235.59 120.14 233.44 123.37 230.29 L 123.37 230.29 C 127.87 225.9 130.4 219.88 130.4 213.59 L 130.4 207.2 L 146.98 212.76 L 146.98 223.62 C 146.98 227.01 147.68 230.36 149.03 233.46 L 155.99 249.42 C 157.64 253.2 158.39 257.3 158.19 261.41 Z"
            fill="#ffd3bc"/>
        <path
            id="path_108"
            clip-path="url(#clip_path_108)"
            d="M 137.57 262.91 L 135.29 285.77 L -12.29 162.86 L -8.06 154.27 C -7.22 151.71 -5.89 149.4 -4.19 147.45 L 137.57 262.91 Z"
            fill="#6daafb"/>
    </g>
    <g id="group_46">
        <path
            id="path_109"
            clip-path="url(#clip_path_109)"
            d="M 117.35 91.11"
            fill="#00000000"
            stroke="#ffffff"
            stroke-width="1.7636"
            stroke-linecap="round"/>
        <g
            id="group_38"
            clip-path="url(#clip_group_38)">
            <path
                id="path_110"
                clip-path="url(#clip_path_110)"
                d="M 278.71 217.26 L 225.7 217.26 L 225.7 188.32 L 225.7 139.26 L 278.71 139.26 Z"
                fill="#ffb48c"/>
        </g>
        <g
            id="group_39"
            clip-path="url(#clip_group_39)">
            <path
                id="path_111"
                clip-path="url(#clip_path_111)"
                d="M 236.57 182.63 C 245.81 195.52 260.64 202.12 274.45 199.41 C 285.73 197.19 292.6 189.5 294.95 186.58 C 289.31 178.57 283.67 170.56 278.03 162.55 C 264.2 169.25 250.39 175.94 236.57 182.63 Z"
                fill="#e65300"/>
        </g>
        <path
            id="path_112"
            clip-path="url(#clip_path_112)"
            d="M 287.63 128.43 L 282.62 165.5 C 282.01 170.01 279.58 173.97 276.02 176.27 L 262.91 184.73 C 256.36 188.96 248.06 188.96 241.51 184.73 L 228.4 176.27 C 224.84 173.97 222.41 170.01 221.8 165.5 L 216.78 128.42 L 221.82 107.35 C 225.28 92.87 237.82 82.71 252.21 82.71 L 252.21 82.71 C 266.6 82.71 279.14 92.88 282.6 107.35 L 287.63 128.43 Z"
            fill="#ffb48c"/>
        <path
            id="path_113"
            clip-path="url(#clip_path_113)"
            d="M 252.28 144.12 L 253.36 131.2 C 253.37 131.04 253.39 130.88 253.41 130.72 C 253.94 126.79 257.09 123.74 261 123.1 L 266.3 122.87 C 266.3 122.87 266.54 103.55 258.54 97.91 L 238.4 86.85 L 221.45 99.24 L 215.65 125.99 L 222.75 151.84 L 252.28 144.12 Z"
            fill="#ffd3bc"/>
        <path
            id="path_114"
            clip-path="url(#clip_path_114)"
            d="M 250.57 150.5 L 250.45 150.38 C 250.15 150.08 249.65 150.08 249.35 150.38 L 249.07 150.66 C 248.61 151.12 247.86 151.12 247.4 150.66 L 247.4 150.66 C 246.94 150.2 246.94 149.45 247.4 148.99 L 247.4 148.99 C 247.86 148.53 248.61 148.53 249.07 148.99 L 250.57 150.5 Z"
            fill="#fc823a"/>
        <path
            id="path_115"
            clip-path="url(#clip_path_115)"
            d="M 253.83 150.5 L 253.95 150.38 C 254.25 150.08 254.75 150.08 255.05 150.38 L 255.33 150.66 C 255.79 151.12 256.54 151.12 257 150.66 L 257 150.66 C 257.46 150.2 257.46 149.45 257 148.99 L 257 148.99 C 256.54 148.53 255.79 148.53 255.33 148.99 L 253.83 150.5 Z"
            fill="#fc823a"/>
        <path
            id="path_116"
            clip-path="url(#clip_path_116)"
            d="M 262.94 163.41 L 260.19 164.41 C 259.14 164.79 257.95 164.92 256.8 164.77 L 255.23 164.57 C 254.27 164.45 253.29 164.59 252.46 164.96 L 252.19 165.08 L 251.92 164.96 C 251.09 164.58 250.11 164.44 249.15 164.57 L 247.58 164.77 C 246.43 164.92 245.24 164.79 244.19 164.41 L 241.44 163.41 C 241.87 163.57 242.34 163.65 242.81 163.65 C 243.26 163.65 243.7 163.58 244.12 163.43 L 246.25 162.69 C 248.01 162.08 250.04 162.02 251.85 162.54 L 252.18 162.63 L 252.51 162.54 C 254.33 162.02 256.35 162.08 258.11 162.69 L 260.24 163.43 C 260.66 163.58 261.1 163.65 261.55 163.65 C 262.04 163.65 262.51 163.57 262.94 163.41 Z"
            fill="#fc823a"/>
        <path
            id="path_117"
            clip-path="url(#clip_path_117)"
            d="M 236.36 132.37 M 233.9 132.37 C 233.9 131.718 234.159 131.092 234.621 130.631 C 235.082 130.169 235.708 129.91 236.36 129.91 C 237.012 129.91 237.638 130.169 238.099 130.631 C 238.561 131.092 238.82 131.718 238.82 132.37 C 238.82 133.022 238.561 133.648 238.099 134.109 C 237.638 134.571 237.012 134.83 236.36 134.83 C 235.708 134.83 235.082 134.571 234.621 134.109 C 234.159 133.648 233.9 133.022 233.9 132.37"
            fill="#000000"/>
        <path
            id="path_118"
            clip-path="url(#clip_path_118)"
            d="M 239.84 130.66 C 237.78 128.73 234.58 128.7 232.48 130.58 L 229.72 133.05 L 229.72 133.05 C 230.21 133.39 230.87 133.35 231.31 132.95 L 232.97 131.46 C 234.24 130.33 235.96 129.98 237.49 130.43 C 238.13 130.62 238.7 130.98 239.21 131.41 L 240.83 132.79 C 241.04 132.97 241.3 133.07 241.57 133.07 L 242.42 133.09 L 239.84 130.66 Z"
            fill="#000000"/>
        <path
            id="path_119"
            clip-path="url(#clip_path_119)"
            d="M 226.06 127.35 L 230.85 124.05 C 232.17 123.14 233.75 122.68 235.35 122.75 L 242.71 123.06 C 243.69 123.1 244.53 123.78 244.77 124.73 L 245.26 126.68 L 234.4 125.85 C 233.08 125.75 231.76 126.01 230.57 126.59 L 227.58 128.07 L 226.06 127.35 Z"
            fill="#c54600"/>
        <path
            id="path_120"
            clip-path="url(#clip_path_120)"
            d="M 268.33 132.37 M 265.87 132.37 C 265.868 131.85 266.032 131.342 266.337 130.92 C 266.642 130.498 267.073 130.184 267.568 130.023 C 268.063 129.862 268.597 129.862 269.092 130.023 C 269.587 130.184 270.018 130.498 270.323 130.92 C 270.628 131.342 270.792 131.85 270.79 132.37 C 270.792 132.89 270.628 133.398 270.323 133.82 C 270.018 134.242 269.587 134.556 269.092 134.717 C 268.597 134.878 268.063 134.878 267.568 134.717 C 267.073 134.556 266.642 134.242 266.337 133.82 C 266.032 133.398 265.868 132.89 265.87 132.37"
            fill="#000000"/>
        <path
            id="path_121"
            clip-path="url(#clip_path_121)"
            d="M 264.85 130.66 C 266.91 128.73 270.11 128.7 272.21 130.58 L 274.97 133.05 L 274.97 133.05 C 274.48 133.39 273.82 133.35 273.38 132.95 L 271.72 131.46 C 270.45 130.33 268.73 129.98 267.2 130.43 C 266.56 130.62 265.99 130.98 265.48 131.41 L 263.86 132.79 C 263.65 132.97 263.39 133.07 263.12 133.07 L 262.27 133.09 L 264.85 130.66 Z"
            fill="#000000"/>
        <path
            id="path_122"
            clip-path="url(#clip_path_122)"
            d="M 278.63 127.35 L 273.84 124.05 C 272.52 123.14 270.94 122.68 269.34 122.75 L 261.98 123.06 C 261 123.1 260.16 123.78 259.92 124.73 L 259.43 126.68 L 270.29 125.85 C 271.61 125.75 272.93 126.01 274.12 126.59 L 277.11 128.07 L 278.63 127.35 Z"
            fill="#c54600"/>
        <path
            id="path_123"
            clip-path="url(#clip_path_123)"
            d="M 268.53 162.75 L 267.36 166.09 L 266.74 164.4 C 266.3 163.19 265.3 162.26 264.06 161.91 L 260.6 160.93 C 258.52 160.34 256.34 160.26 254.23 160.68 L 252.37 161.05 L 252.35 161.06 L 252.35 161.05 L 250.49 160.68 C 248.38 160.26 246.19 160.34 244.12 160.93 L 240.66 161.91 C 239.42 162.26 238.42 163.19 237.98 164.4 L 237.36 166.09 L 236.19 162.75 C 235.53 160.86 236.6 158.8 238.52 158.26 L 241.97 157.29 C 245.35 156.34 248.85 155.85 252.37 155.85 L 252.37 155.85 C 255.89 155.85 259.38 156.33 262.77 157.29 L 266.22 158.26 C 268.12 158.8 269.19 160.86 268.53 162.75 Z"
            fill="#a33b04"/>
        <path
            id="path_124"
            clip-path="url(#clip_path_124)"
            d="M 285.92 139.85 L 282.74 168.3 C 282.4 171.29 280.75 173.95 278.27 175.53 L 258.89 187.85 C 254.79 190.46 249.62 190.46 245.52 187.85 L 226.14 175.53 C 223.66 173.96 222.02 171.29 221.67 168.3 L 218.54 141.1 L 232.43 158.21 L 233.11 170.03 L 247.14 178.47 C 248.2 179.11 249.54 178.31 249.54 177.04 L 249.54 172.59 L 247.76 172.24 C 246.59 172.01 245.66 171.08 245.4 169.87 L 244.77 166.95 L 259.63 166.95 L 259 169.87 C 258.74 171.08 257.81 172.01 256.64 172.24 L 254.86 172.59 L 254.86 177.04 C 254.86 178.32 256.19 179.11 257.26 178.47 L 271.29 170.03 L 271.97 158.21 L 285.92 139.85 Z"
            fill="#e65300"/>
        <g
            id="group_40"
            clip-path="url(#clip_group_40)">
            <path
                id="path_125"
                clip-path="url(#clip_path_125)"
                d="M 218.54 141.1 L 218.54 129.49 C 218.54 128.57 218.8 127.66 219.28 126.88 L 225.1 117.49 C 226.65 114.62 227.46 111.4 227.46 108.14 L 227.46 108.14 C 227.46 102.72 233.52 99.51 238.01 102.56 L 248.66 109.81 C 252.02 112.09 256.01 113.24 260.07 113.09 L 274.1 112.56 C 276.56 112.47 278.91 113.61 280.36 115.6 L 285.87 123.15 L 285.87 141.11 L 288.7 135.51 C 289.08 134.76 289.27 133.93 289.27 133.1 L 289.27 128.13 L 293.81 120.51 C 295.42 117.81 295.88 114.59 295.11 111.55 L 292.51 101.36 C 290.46 93.34 283.47 87.56 275.21 87.05 L 275.21 87.05 L 272.83 83.63 C 268.74 77.76 261.47 74.97 254.5 76.61 L 238.7 80.32 C 232.03 81.89 226.67 86.81 224.53 93.32 L 224.53 93.32 L 220.34 95.31 C 211.51 99.5 207.53 109.88 211.3 118.9 L 215.15 128.13 L 215.15 131.7 C 215.15 133.44 215.56 135.16 216.34 136.72 L 218.54 141.1 Z"
                fill="#c54600"/>
        </g>
        <g
            id="group_41"
            clip-path="url(#clip_group_41)">
            <path
                id="path_126"
                clip-path="url(#clip_path_126)"
                d="M 263.29 105.72 L 253.36 99.06 C 246.31 94.33 245.49 84.28 251.68 78.48 L 276.12 66.68 L 233.45 80.34 L 220.9 89.26 L 200.54 105.15 L 218.11 140.01 L 230.38 118.82 L 238.28 102.93 C 239.58 103.71 252.15 111.56 259.66 108.14 C 260.75 107.64 262.01 106.88 263.29 105.72 Z"
                fill="#e65300"/>
        </g>
        <path
            id="path_127"
            clip-path="url(#clip_path_127)"
            d="M 225.7 217.56 L 225.7 253.97 C 230.69 263.31 230.24 287.74 222.6 288.71 C 216.57 289.49 192.84 293.42 186.85 294.48 C 174.75 296.63 165.26 291.72 153.36 295.06 L 144.7 292.17 C 141.59 293.04 131.92 296.83 128.77 297.51 L 141.77 245 C 144.1 236.04 150.54 228.72 159.13 225.27 L 205.05 206.81 L 225.7 217.56 Z"
            fill="#c54600"/>
        <path
            id="path_128"
            clip-path="url(#clip_path_128)"
            d="M 225.1 266.39 L 224.93 266.71 L 224.96 266.39 Z"
            fill="#a33b04"/>
        <path
            id="path_129"
            clip-path="url(#clip_path_129)"
            d="M 225.7 182.08 L 200.67 199.95 C 199.08 201.09 198.06 202.86 197.87 204.8 L 196.23 221.97 C 195.98 224.61 198.05 226.89 200.7 226.89 L 225.7 226.89 L 225.7 182.08 Z"
            fill="#dddddd"/>
        <path
            id="path_130"
            clip-path="url(#clip_path_130)"
            d="M 225.7 198.14 L 225.7 182.09 L 225.7 182.09 C 221.95 185.17 221.05 190.54 223.58 194.68 L 225.7 198.14 Z"
            fill="#c54600"/>
        <path
            id="path_131"
            clip-path="url(#clip_path_131)"
            d="M 258.26 288.43 L 252.68 281.79 L 224.38 281.79 L 225.7 198.14 L 225.7 198.14 C 237.83 217.92 266.57 217.93 278.7 198.14 L 278.7 198.14 L 281.76 275.24 L 258.26 288.43 Z"
            fill="#ffffff"/>
        <path
            id="path_132"
            clip-path="url(#clip_path_132)"
            d="M 353.82 267.31 C 343 264.26 332.08 261.71 321.08 259.65 C 315.1 258.52 309.09 257.54 303.07 256.71 C 294.98 255.58 290.31 272.06 282.18 271.47 L 278.72 217.56 L 299.37 206.81 L 345.29 225.27 C 353.88 228.72 360.32 236.05 362.65 245 L 369.47 271.25 C 365.53 270.45 361.61 269.5 357.73 268.4 L 353.82 267.31 Z"
            fill="#c54600"/>
        <g
            id="group_42"
            clip-path="url(#clip_group_42)">
            <path
                id="path_133"
                clip-path="url(#clip_path_133)"
                d="M 278.72 182.08 L 303.75 199.95 C 305.34 201.09 306.36 202.86 306.55 204.8 L 308.19 221.97 C 308.44 224.61 306.37 226.89 303.72 226.89 L 278.72 226.89 L 278.72 182.08 Z"
                fill="#dddddd"/>
        </g>
        <g
            id="group_43"
            clip-path="url(#clip_group_43)">
            <path
                id="path_134"
                clip-path="url(#clip_path_134)"
                d="M 277.93 198.58 L 283.71 195.2 C 285.73 194.02 288.24 194.03 290.25 195.23 L 313.76 209.31 L 318.5 198.85 L 274.3 175.57 L 277.93 198.58 Z"
                fill="#c6c6c6"/>
        </g>
        <path
            id="path_135"
            clip-path="url(#clip_path_135)"
            d="M 278.72 198.14 L 278.72 182.09 L 278.72 182.09 C 282.47 185.17 283.37 190.54 280.84 194.68 L 278.72 198.14 Z"
            fill="#000000"/>
        <path
            id="path_136"
            clip-path="url(#clip_path_136)"
            d="M 389.06 171.94 L 222.76 280.49 L 177.12 289.76 L 372.74 159.4 C 374.77 161.74 376.1 141.3 377.11 144.37 L 389.06 171.94 Z"
            fill="#6daafb"/>
        <path
            id="path_137"
            clip-path="url(#clip_path_137)"
            d="M 252.46 236.99 C 215.42 236.99 184.2 262.36 175.28 296.65 L 189.93 296.65 C 198.44 270.24 223.26 251.08 252.45 251.08 C 281.64 251.08 306.47 270.24 314.97 296.65 L 329.62 296.65 C 320.72 262.36 289.5 236.99 252.46 236.99 Z"
            fill="#000000"/>
        <g
            id="group_44"
            clip-path="url(#clip_group_44)">
            <path
                id="path_138"
                clip-path="url(#clip_path_138)"
                d="M 148.87 292.39 L 178.87 285.17 L 189.13 267.76 C 191.9 263.91 197.43 263.44 200.84 266.74 L 206.28 272.02 C 207.36 273.41 209.41 274.03 211.4 272.96 C 212.32 272.47 212.92 271.57 213.13 270.58 C 213.31 269.79 214.12 269.33 214.91 269.54 C 215.16 269.61 215.39 269.65 215.58 269.65 C 217.36 269.65 218.86 268.43 219.31 266.79 C 219.33 266.74 219.33 266.65 219.35 266.56 C 219.4 265.87 220.06 265.39 220.71 265.61 C 221.08 265.73 221.47 265.79 221.88 265.79 C 223.61 265.79 225.08 264.64 225.55 263.07 C 225.74 262.4 226.34 261.94 227.05 261.94 L 228.14 261.94 C 230.28 261.94 232.01 260.21 232.01 258.07 C 232.01 257.68 228.81 246.63 228.81 246.63 C 235.66 246.65 226.11 241.7 223.28 240.5 L 214.98 236.95 C 214.36 236.47 213.6 236.16 212.79 236.12 C 211.22 236.05 209.84 236.91 209.15 238.22 C 208.73 239.07 207.86 239.58 206.94 239.54 L 206.87 239.54 C 205.39 239.54 204.08 240.39 203.44 241.64 C 203 242.49 202.15 243.02 201.2 242.98 L 201.15 242.98 C 199.67 242.98 198.36 243.83 197.72 245.08 C 197.28 245.93 196.43 246.46 195.48 246.42 L 195.39 246.42 C 193.54 246.42 191.98 247.71 191.63 249.44 L 191.61 249.49 L 190.02 253.76 C 188.04 259.11 184.69 263.84 180.29 267.48 L 148.87 292.39 Z"
                fill="#ffd3bc"/>
        </g>
        <g
            id="group_45"
            clip-path="url(#clip_group_45)">
            <path
                id="path_139"
                clip-path="url(#clip_path_139)"
                d="M 232 264.84 C 231.18 256.86 227.5 239.66 227.5 239.66 C 227.83 241.2 228.24 242.78 228.1 244.37 C 228.04 245.09 227.87 245.88 227.35 246.41 C 226.4 247.37 224.37 248.39 223.09 247.61 C 220.03 245.76 216.98 243.92 213.92 242.07 L 220.24 246.81 C 221.65 247.87 221.61 249.99 220.16 251 L 219.47 251.48 C 218.35 252.26 216.87 252.27 215.73 251.52 L 207.88 246.35 L 213.91 251.14 C 215.22 252.18 215.19 254.18 213.85 255.19 L 213.06 255.78 C 211.84 256.7 210.16 256.71 208.92 255.82 L 201.74 250.62 L 206.7 255.78 C 207.8 256.92 207.56 258.79 206.2 259.62 L 205.19 260.24 C 203.88 261.04 202.19 260.87 201.06 259.82 C 198.71 257.63 194.78 253.94 192.82 252.02 C 192.46 251.67 192.21 251.23 192.09 250.74 C 191.88 249.83 191.94 249.11 192.06 248.58 C 192.47 246.87 193.84 245.87 193.83 245.88 C 173.68 262.37 153.54 278.87 133.39 295.36 L 203.95 289.5 L 203.78 276.66 L 232 264.84 Z"
                fill="#ffb48c"/>
        </g>
        <path
            id="path_140"
            clip-path="url(#clip_path_140)"
            d="M 339.44 283.94 L 322.62 283.94 L 314.5 270.25 C 312.13 266.97 307.42 266.56 304.51 269.38 L 299.87 273.88 C 298.95 275.07 297.2 275.6 295.5 274.68 C 294.72 274.26 294.2 273.49 294.02 272.65 C 293.87 271.97 293.18 271.58 292.5 271.76 C 292.29 271.82 292.09 271.85 291.93 271.85 C 290.41 271.85 289.13 270.81 288.75 269.41 C 288.73 269.36 288.73 269.29 288.72 269.21 C 288.67 268.62 288.12 268.22 287.56 268.4 C 287.24 268.51 286.91 268.55 286.57 268.55 C 285.09 268.55 283.84 267.57 283.44 266.23 C 283.27 265.66 282.76 265.27 282.16 265.27 L 281.23 265.27 C 279.41 265.27 277.93 263.79 277.93 261.97 C 277.93 261.64 280.66 252.21 280.66 252.21 C 281.4 249.86 283.13 247.95 285.38 246.98 L 292.46 243.95 C 292.99 243.54 293.64 243.27 294.33 243.24 C 295.67 243.18 296.85 243.92 297.43 245.03 C 297.79 245.75 298.53 246.19 299.31 246.16 L 299.37 246.16 C 300.64 246.16 301.75 246.88 302.29 247.95 C 302.67 248.67 303.39 249.13 304.2 249.09 L 304.25 249.09 C 305.52 249.09 306.63 249.81 307.17 250.88 C 307.55 251.6 308.27 252.06 309.08 252.02 L 309.13 252.02 C 310.71 252.02 312.04 253.12 312.34 254.6 L 312.36 254.65 L 313.72 258.3 C 315.41 262.86 318.27 266.9 322.02 270.01 L 339.44 283.94 Z"
            fill="#ffb48c"/>
        <path
            id="path_141"
            clip-path="url(#clip_path_141)"
            d="M 340.43 264.54 C 339.16 262.93 337.88 261.33 336.61 259.72 C 335.74 258.62 334.85 257.51 333.68 256.73 C 331.88 255.54 329.58 255.28 327.8 254.06 C 324.65 251.91 323.66 247.19 320.1 245.82 C 319.76 245.69 319.36 245.6 319.04 245.76 C 318.72 245.92 318.55 246.28 318.31 246.55 C 317.59 247.33 316.3 247.17 315.37 246.67 C 314.44 246.17 313.66 245.39 312.67 245.01 C 311.18 244.44 309.45 244.9 308.13 245.8 C 306.81 246.71 305.83 248.01 304.87 249.29 C 302.82 252.01 300.7 254.92 300.36 258.31 C 313.08 258.01 325.61 261.1 337.96 264.17"
            fill="#ffb48c"/>
        <path
            id="path_142"
            clip-path="url(#clip_path_142)"
            d="M 88.39 301.05 C 103.45 301.05 118.43 298.99 132.93 294.93 L 137.12 293.76 C 204.22 274.96 275.2 275.01 342.27 293.88 L 346.18 294.98 C 360.74 299.08 375.79 301.15 390.91 301.15 L 219.09 346.35 L 88.39 301.05 Z"
            fill="#000000"/>
    </g>
    <g id="group_49">
        <path
            id="path_143"
            clip-path="url(#clip_path_143)"
            d="M 215.51 134.86 L 225.04 154.83 L 225.53 165.21 L 224.23 167.56 L 214.21 138.78 C 213.7 137.27 214.26 135.65 215.51 134.86 M 215.62 131.7 C 215.23 131.7 214.83 131.79 214.46 131.97 C 214.45 131.98 214.44 131.98 214.43 131.99 C 211.6 133.39 210.32 136.75 211.33 139.75 L 223.6 175 L 228.62 165.94 L 228.06 154.09 L 218.14 133.32 C 217.66 132.31 216.66 131.7 215.62 131.7 L 215.62 131.7 Z"
            fill="#dddddd"/>
        <path
            id="path_144"
            clip-path="url(#clip_path_144)"
            d="M 287.82 134.87 C 289.06 135.65 289.61 137.28 289.09 138.81 L 280.13 166.78 L 279.19 164.49 L 279.19 155.93 L 287.82 134.87 M 287.69 131.7 C 286.65 131.7 285.65 132.3 285.17 133.3 L 276.15 155.33 L 276.15 165.09 L 280.47 175.69 L 291.98 139.75 C 292.98 136.75 291.71 133.39 288.88 131.99 C 288.87 131.98 288.86 131.98 288.85 131.97 C 288.48 131.79 288.08 131.7 287.69 131.7 L 287.69 131.7 Z"
            fill="#dddddd"/>
        <path
            id="path_145"
            clip-path="url(#clip_path_145)"
            d="M 288.57 131.79 L 288.57 131.79 C 290.43 131.79 292.08 132.97 292.69 134.73 L 292.69 134.73 C 293.6 137.38 293.45 140.28 292.25 142.82 L 287.04 153.88 C 286.39 155.27 284.99 156.16 283.45 156.16 L 283.45 156.16 L 285.16 141.26 L 288.57 131.79 Z"
            fill="#ffb48c"/>
        <path
            id="path_146"
            clip-path="url(#clip_path_146)"
            d="M 215.14 131.65 L 215.14 131.65 C 213.28 131.65 211.63 132.83 211.02 134.59 L 211.02 134.59 C 210.11 137.24 210.26 140.14 211.46 142.68 L 216.67 153.74 C 217.32 155.13 218.72 156.02 220.26 156.02 L 220.26 156.02 L 218.55 141.12 L 215.14 131.65 Z"
            fill="#ffd3bc"/>
        <path
            id="path_147"
            clip-path="url(#clip_path_147)"
            d="M 223.93 145.07"
            fill="#00000000"
            stroke="#a1bdca"
            stroke-width="9.93"/>
        <g
            id="group_47"
            clip-path="url(#clip_group_47)">
            <path
                id="path_148"
                clip-path="url(#clip_path_148)"
                d="M 280.95 146.98 L 280.95 173.11 C 280.95 174.89 280.16 176.57 278.8 177.71 L 273.6 182.05 C 261.55 192.11 244.1 192.37 231.76 182.67 L 225.44 177.71 C 223.99 176.57 223.15 174.84 223.15 173 L 223.15 146.98 C 223.15 145.33 224.49 143.98 226.15 143.98 L 234.83 143.98 C 238.05 143.98 241.15 142.71 243.44 140.45 L 243.44 140.45 C 248.22 135.75 255.88 135.75 260.66 140.44 L 260.67 140.45 C 262.97 142.71 266.06 143.97 269.28 143.97 L 277.96 143.97 C 279.6 143.98 280.95 145.32 280.95 146.98 Z"
                fill="#6daafb"/>
        </g>
        <g
            id="group_48"
            clip-path="url(#clip_group_48)">
            <path
                id="path_149"
                clip-path="url(#clip_path_149)"
                d="M 252.72 139.33 L 252.97 149.94 C 253.03 152.5 251.57 154.85 249.25 155.92 L 247.73 156.63 C 247.05 156.95 247.22 157.96 247.97 158.03 L 265.7 159.68 C 266.38 159.74 266.47 160.7 265.82 160.89 L 252.51 164.82 C 251.97 164.98 251.95 165.73 252.47 165.93 L 264.47 170.46 C 264.89 170.62 264.9 171.2 264.49 171.38 L 260.02 173.29 C 257.49 174.37 255.86 176.86 255.86 179.6 L 255.86 179.6 C 255.86 182.29 256.6 184.93 258 187.23 L 265.9 200.17 L 289.96 192.76 L 281.87 134.08 L 252.72 139.33 Z"
                fill="#535fcf"/>
        </g>
        <path
            id="path_150"
            clip-path="url(#clip_path_150)"
            d="M 252.05 136.93 C 248.94 136.93 245.83 138.11 243.44 140.46 C 241.14 142.72 238.05 143.99 234.83 143.99 L 223.16 143.99 L 223.16 147.54 L 234.83 147.54 C 239.01 147.54 242.95 145.93 245.93 142.99 C 247.57 141.37 249.75 140.48 252.05 140.48 C 254.35 140.48 256.53 141.37 258.18 143 C 261.16 145.93 265.1 147.54 269.27 147.54 L 280.94 147.54 L 280.94 143.99 L 269.27 143.99 C 266.05 143.99 262.96 142.72 260.66 140.47 L 260.65 140.46 C 258.26 138.1 255.16 136.93 252.05 136.93 L 252.05 136.93 Z"
            fill="#ffffff"/>
    </g>
    <path
        id="path_151"
        d="M 62.27 147.42 L 71.07 157.88 L 70.13 167.07 L 68.83 169.96 L 63.72 160.27 C 62.58 158.11 62.02 155.67 62.11 153.21 L 62.27 147.42 M 60.39 141.76 C 60.25 141.76 60.12 141.86 60.11 142.03 L 59.8 153.14 C 59.7 155.99 60.34 158.82 61.67 161.34 L 69 175.2 L 72.39 167.67 L 73.46 157.14 L 60.62 141.88 C 60.56 141.8 60.48 141.76 60.39 141.76 L 60.39 141.76 Z"
        fill="#dddddd"/>
    <path
        id="path_152"
        d="M 118.15 147.32 L 118.31 153.23 C 118.4 155.67 117.84 158.11 116.7 160.27 L 111.59 169.96 L 110.27 167.02 L 108.93 157.99 L 118.15 147.32 M 120.03 141.76 C 119.95 141.76 119.86 141.8 119.81 141.88 L 106.5 157.28 L 108.04 167.67 L 111.43 175.2 L 118.74 161.34 C 120.07 158.82 120.72 155.99 120.61 153.14 L 120.3 142.03 C 120.3 141.86 120.17 141.76 120.03 141.76 L 120.03 141.76 Z"
        fill="#dddddd"/>
    <path
        id="path_153"
        d="M 60.42 141.68 L 60.42 141.68 C 58.87 141.68 57.49 142.66 56.98 144.13 L 56.98 144.13 C 56.22 146.34 56.35 148.77 57.34 150.88 L 61.57 159.87 C 62.19 161.18 63.5 162.01 64.95 162.01 L 65 162.01 L 63.25 149.56 L 60.42 141.68 Z"
        fill="#e65300"/>
    <path
        id="path_154"
        d="M 120 141.84 L 120 141.84 C 121.55 141.84 122.93 142.82 123.44 144.29 L 123.44 144.29 C 124.2 146.5 124.07 148.93 123.08 151.04 L 118.85 160.03 C 118.23 161.34 116.92 162.17 115.47 162.17 L 115.47 162.17 L 117.17 149.72 L 120 141.84 Z"
        fill="#c54600"/>
    <path
        id="path_155"
        d="M 68.84 151.9"
        fill="#00000000"
        stroke="#a1bdca"
        stroke-width="7.5092"/>
    <g id="group_50">
        <path
            id="path_156"
            clip-path="url(#clip_path_156)"
            d="M 111.96 153.34 L 111.96 173.1 C 111.96 174.44 111.36 175.72 110.33 176.58 L 106.4 179.86 C 97.29 187.47 84.09 187.67 74.76 180.33 L 69.98 176.58 C 68.89 175.72 68.25 174.41 68.25 173.02 L 68.25 153.34 C 68.25 152.09 69.26 151.07 70.52 151.07 L 77.08 151.07 C 79.52 151.07 81.86 150.11 83.59 148.4 L 83.59 148.4 C 87.2 144.84 93 144.84 96.61 148.4 L 96.62 148.41 C 98.36 150.12 100.69 151.07 103.13 151.07 L 109.69 151.07 C 110.94 151.07 111.96 152.09 111.96 153.34 Z"
            fill="#6daafb"/>
    </g>
    <g id="group_51">
        <path
            id="path_157"
            clip-path="url(#clip_path_157)"
            d="M 90.96 146.43 L 91.89 154.82 C 92.01 155.87 91.68 156.92 90.98 157.72 L 88.96 160.02 C 88.66 160.37 88.91 160.91 89.37 160.9 L 102.11 160.65 L 90.96 168.25 C 90.58 168.51 90.74 169.09 91.19 169.13 L 99.6 169.85 L 95.91 171.94 C 94.22 172.9 93.14 174.66 93.06 176.6 L 93.06 176.6 C 92.96 179.12 93.55 181.61 94.77 183.82 L 97.37 188.53 L 116.61 183.23 L 111.03 142.8 L 90.96 146.43 Z"
            fill="#535fcf"/>
    </g>
    <path
        id="path_158"
        d="M 90.1 145.74 C 87.75 145.74 85.39 146.63 83.59 148.41 C 81.85 150.12 79.51 151.08 77.08 151.08 L 68.25 151.08 L 68.25 153.76 L 77.08 153.76 C 80.24 153.76 83.22 152.54 85.47 150.32 C 86.71 149.1 88.36 148.42 90.1 148.42 C 91.84 148.42 93.49 149.09 94.74 150.32 C 96.99 152.53 99.97 153.75 103.13 153.75 L 111.96 153.75 L 111.96 151.07 L 103.13 151.07 C 100.7 151.07 98.36 150.11 96.62 148.41 L 96.61 148.4 C 94.81 146.63 92.46 145.74 90.1 145.74 L 90.1 145.74 Z"
        fill="#ffffff"/>
    <g id="group_52">
        <path
            id="path_159"
            clip-path="url(#clip_path_159)"
            d="M 113.17 134.45 L 110.1 134.04 L 110.11 134.05 C 110.02 134.03 109.94 134.01 109.86 133.99 L 107.77 133.65 C 105.89 133.34 103.98 133.28 102.1 133.46 C 98.94 133.76 96.28 135.73 94.95 138.49 C 94.56 139.31 93.62 139.74 92.75 139.5 C 92.04 139.31 91.32 139.21 90.6 139.21 C 89.88 139.21 89.15 139.31 88.45 139.5 C 87.58 139.74 86.64 139.3 86.25 138.49 C 84.92 135.73 82.25 133.76 79.1 133.46 C 77.22 133.28 75.31 133.34 73.43 133.65 L 71.34 133.99 C 71.25 134 71.17 134.03 71.09 134.05 L 71.1 134.04 L 68.03 134.45 C 65.76 134.75 64.05 136.81 64.36 139.07 C 64.41 139.4 64.49 139.7 64.61 139.96 L 64.61 139.96 C 65.25 141.29 65.82 142.66 66.3 144.06 C 66.55 144.8 66.86 145.51 67.23 146.19 C 67.97 147.54 68.94 148.75 70.14 149.75 C 72.82 151.97 75.92 152.85 78.94 152.35 C 83.07 151.68 86.32 148.58 87.04 144.64 C 87.12 144.21 87.17 143.76 87.19 143.32 C 87.23 142.46 87.83 141.72 88.66 141.52 C 89.31 141.36 89.96 141.28 90.61 141.28 C 91.26 141.28 91.92 141.36 92.56 141.52 C 93.39 141.72 93.99 142.47 94.03 143.32 C 94.05 143.77 94.11 144.21 94.18 144.64 C 94.9 148.58 98.16 151.68 102.28 152.35 C 105.3 152.85 108.4 151.97 111.08 149.75 C 112.28 148.75 113.25 147.54 113.99 146.19 C 114.36 145.51 114.67 144.8 114.92 144.06 C 115.39 142.66 115.97 141.3 116.61 139.96 L 116.61 139.96 C 116.74 139.7 116.82 139.4 116.86 139.07 C 117.15 136.81 115.44 134.75 113.17 134.45 Z M 85.5 144.34 C 85.5 144.34 85.5 144.35 85.5 144.35 C 84.91 147.62 82.2 150.19 78.78 150.75 C 76.27 151.16 73.7 150.43 71.48 148.59 C 70.48 147.76 69.67 146.76 69.06 145.64 C 68.45 144.52 68.03 143.28 67.82 142.01 C 67.75 141.61 67.73 141.22 67.75 140.84 L 67.75 140.83 C 67.8 139.71 68.19 138.66 68.81 137.78 C 69.65 136.61 70.94 135.76 72.47 135.51 L 74.2 135.23 C 75.76 134.97 77.35 134.92 78.92 135.07 C 81.06 135.27 82.92 136.4 84.14 138.04 C 84.61 138.68 84.92 139.44 85.09 140.22 C 85.22 140.81 85.38 141.69 85.49 142.35 C 85.59 143.01 85.62 143.68 85.5 144.34 Z M 113.41 140.84 C 113.43 141.23 113.4 141.62 113.34 142.01 C 113.13 143.28 112.71 144.52 112.1 145.64 C 111.49 146.76 110.68 147.77 109.68 148.59 C 107.46 150.43 104.89 151.16 102.38 150.75 C 98.96 150.19 96.25 147.62 95.66 144.35 C 95.66 144.34 95.66 144.34 95.66 144.34 C 95.54 143.68 95.57 143.01 95.68 142.36 C 95.79 141.7 95.94 140.82 96.08 140.23 C 96.25 139.45 96.55 138.69 97.03 138.05 C 98.25 136.4 100.11 135.27 102.25 135.08 C 103.81 134.93 105.4 134.98 106.97 135.24 L 108.7 135.52 C 110.23 135.77 111.52 136.62 112.36 137.79 C 112.97 138.66 113.36 139.71 113.41 140.84 L 113.41 140.84 Z"
            fill="#ffb48c"/>
    </g>
    <g id="group_53">
        <path
            id="path_160"
            clip-path="url(#clip_path_160)"
            d="M 91.79 131 L 90.86 143.83 L 63.44 174.22 L 54.66 121.38 Z"
            fill="#ffd3bc"/>
    </g>
    <path
        id="path_161"
        d="M 147.01 215.66 L 130.34 212.45 L 130.39 207.21 L 146.98 212.77 Z"
        fill="#ffb48c"/>
</svg>
